<svg xmlns="http://www.w3.org/2000/svg" width="155.56" height="155.56" viewBox="0 0 155.56 155.56"><defs><style>.a{fill:#fff;stroke:#707070;}.b{fill:#1594c4;}.c{fill:#042189;}.d{stroke:none;}.e{fill:none;}</style></defs><g transform="translate(-342 -432)"><g class="a" transform="translate(342 432)"><circle class="d" cx="77.78" cy="77.78" r="77.78"/><circle class="e" cx="77.78" cy="77.78" r="77.28"/></g><g transform="translate(365 445)"><g transform="translate(18.84 14.941)"><g transform="translate(45.154 8.427)"><path class="b" d="M100.812,123.735c.079-2.314.07-4.659.07-6.988l-.932-.143a37.518,37.518,0,0,0,10.921-14.639,20.167,20.167,0,0,1-.758,5.211c1.326-1.863,2.1-4.232,3.213-6.3.34-.631.648-1.279.933-1.926h.126c2.716,0,4.927-3.025,4.927-6.744a8.107,8.107,0,0,0-1.469-4.8c1.319-5.03,2.022-10,.932-15.27a29.2,29.2,0,0,1,1.579,2.653c3.909,7.58,2.74,21.264.75,29.69-1.184,5.006-3.576,9.428-1.935,14.8,1.382,4.509,5.906,5.5,6.491,10.81a21.1,21.1,0,0,1-1.69,10.779,36.208,36.208,0,0,0-7.912-2.914c.442-1.958-2.653-3.893-3.925-5-2-1.752-3.9-3.655-5.961-5.313-1.295-1.035-3.293-3.932-5.03-3.893Z" transform="translate(-99.149 -71.347)"/><path class="c" d="M101.639,123.762c.073-2.329.071-4.659.071-6.988a.806.806,0,0,0-.587-.771l-.932-.143.353,1.337a38.057,38.057,0,0,0,11.045-14.8l-1.49-.4a21.076,21.076,0,0,1-.73,5,.8.8,0,0,0,1.462.616,26.584,26.584,0,0,0,2.15-4.094c.632-1.394,1.371-2.736,2-4.133l-.69.4c4.953,0,6.6-6.31,5.487-10.213a8.971,8.971,0,0,0-.642-1.615A1.786,1.786,0,0,1,119,86.23a45.127,45.127,0,0,0,.836-4.452,30.02,30.02,0,0,0-.258-9.831l-1.462.617c5.13,7.878,4.605,18.13,3.165,27.069a56.119,56.119,0,0,1-1.362,6.353,53.115,53.115,0,0,0-1.933,7.541,13.3,13.3,0,0,0,.812,6.972,15.925,15.925,0,0,0,3.281,4.373,9.438,9.438,0,0,1,2.893,6.181,20.664,20.664,0,0,1-1.661,9.44l1.094-.287a39.229,39.229,0,0,0-8.1-2.995l.559.983c.247-1.7-.812-2.982-2.022-4.058-1.674-1.489-3.411-2.893-5.066-4.411-1.632-1.5-3.313-2.889-4.859-4.475-1.179-1.209-2.334-2.207-4.072-2.29-1.029-.049-1.027,1.551,0,1.6,1.526.074,2.55,1.41,3.536,2.444,1.216,1.274,2.615,2.349,3.917,3.535,1.367,1.245,2.694,2.542,4.147,3.69.952.754,3.085,2.11,2.877,3.54a.819.819,0,0,0,.558.983,37.268,37.268,0,0,1,7.721,2.833.809.809,0,0,0,1.094-.287c1.831-4.262,3.066-10.2.811-14.54a22.323,22.323,0,0,0-3.5-4.317,9.934,9.934,0,0,1-2.556-6.692c-.046-2.785.857-5.456,1.649-8.091a57.856,57.856,0,0,0,1.613-6.9,67.785,67.785,0,0,0,1.02-14.345c-.23-5.291-1.316-10.191-4.229-14.664a.8.8,0,0,0-1.462.616,27.772,27.772,0,0,1,.343,8.223,38.224,38.224,0,0,1-.655,4.033c-.19.889-.9,2.335-.538,3.206a14.31,14.31,0,0,1,1.235,2.936,8.2,8.2,0,0,1-.156,3.6c-.508,1.863-1.857,3.805-3.973,3.805a.784.784,0,0,0-.69.4c-.625,1.4-1.363,2.739-2,4.134a26.712,26.712,0,0,1-2.15,4.093l1.462.617a22.92,22.92,0,0,0,.787-5.424c.026-.754-1.163-1.144-1.491-.4a37.073,37.073,0,0,1-10.8,14.477.8.8,0,0,0,.353,1.336l.932.143-.587-.771c0,2.329,0,4.659-.071,6.988C100.007,124.791,101.606,124.79,101.639,123.762Z" transform="translate(-99.176 -71.374)"/></g><path class="b" d="M66.055,73.333a54.9,54.9,0,0,0-1,13.463,7.585,7.585,0,0,0-2.281,5.693c0,3.617,2.085,6.578,4.706,6.736.276.774.561,1.548.846,2.314.362.995.884,2.013,1.326,3.048a11.714,11.714,0,0,0,.79,2.542,10.417,10.417,0,0,0-.79-2.542,19.132,19.132,0,0,1-.174-5.8c.056-.032.1-.063.158-.1a42.659,42.659,0,0,0,12.784,18l-.276.355a33.15,33.15,0,0,1-.411,7.067l-.474-.079c-1.737-.039-3.735,2.858-5.03,3.893-2.061,1.658-3.964,3.561-5.97,5.313-1.263,1.106-4.358,3.04-3.916,5a36.062,36.062,0,0,0-9.918,4.011,12,12,0,0,1,1.7-8.22,15.3,15.3,0,0,1,4.753-4.564,5.089,5.089,0,0,0,2.669-3.513c.877-3.965-.616-8.726-2.314-11.56-1.106-1.848-2.455-3.332-3.537-5.18a19.452,19.452,0,0,1-1.966-6.294c-.774-4.209.063-8.646,1.089-12.641.861-3.349,4.564-18.533,10.644-26.231a19.144,19.144,0,0,0-1.058,2.66C67.689,68.975,66.544,70.941,66.055,73.333Z" transform="translate(-55.528 -63.204)"/><path class="c" d="M65.31,73.15a55.718,55.718,0,0,0-1.062,9.262q-.034,1.1-.024,2.209a5,5,0,0,1-.076,2c-.239.461-.718.87-.985,1.333a8.52,8.52,0,0,0-.708,1.621c-1.28,3.951.246,9.987,5.055,10.477l-.771-.587c.487,1.352.969,2.7,1.56,4.013.6,1.33.907,2.741,1.482,4.082.38.887,1.611.209,1.462-.616-.258-1.424-.88-2.658-1.008-4.114a20.461,20.461,0,0,1,.073-4.012l-.4.69.158-.1-1.175-.478a42.974,42.974,0,0,0,12.99,18.349v-1.131c-.657.845-.471,1.607-.474,2.659a31.848,31.848,0,0,1-.419,5.117l.984-.559c-1.625-.27-2.795.577-3.932,1.672-1.65,1.587-3.312,3.109-5.007,4.652s-3.419,3.021-5.159,4.506c-1.3,1.113-2.541,2.456-2.275,4.28l.559-.983a38.417,38.417,0,0,0-10.109,4.092l1.2.69a11.579,11.579,0,0,1,3.088-9.7c1.713-1.771,4.478-2.753,5.561-5.068,1.178-2.517.82-5.743.152-8.349a22.449,22.449,0,0,0-3.881-7.731,17.856,17.856,0,0,1-2.563-4.32,25.3,25.3,0,0,1-1.161-4.841,28.655,28.655,0,0,1,1-11.078c.89-3.6,1.878-7.178,3.041-10.7,1.817-5.5,3.975-11.236,7.566-15.849L68.8,63.673c-.7,1.461-1.145,3-1.741,4.507a33.234,33.234,0,0,0-1.75,4.97c-.225,1,1.317,1.431,1.542.425a28.928,28.928,0,0,1,1.587-4.566c.611-1.5,1.042-3.066,1.743-4.529.361-.755-.659-1.736-1.256-.97-3.217,4.132-5.314,9.052-7.078,13.948-1.41,3.913-2.563,7.91-3.594,11.938-1.571,6.145-2.422,12.461-.032,18.54,1.178,3,3.611,5.241,5.012,8.119a15.566,15.566,0,0,1,1.61,9.515,5.185,5.185,0,0,1-2.668,3.452,17.235,17.235,0,0,0-3.81,3.384,13.032,13.032,0,0,0-2.711,9.873.811.811,0,0,0,1.2.69,36.878,36.878,0,0,1,9.726-3.93.823.823,0,0,0,.559-.983c-.208-1.427,1.921-2.786,2.872-3.54,1.451-1.151,2.781-2.445,4.15-3.69,1.3-1.186,2.7-2.261,3.918-3.535.845-.886,2.089-2.606,3.466-2.378a.812.812,0,0,0,.983-.558,34.313,34.313,0,0,0,.444-4.141q.039-.925.031-1.853a5.157,5.157,0,0,0-.109-.842.561.561,0,0,1,.115-.235.812.812,0,0,0,0-1.131A41.419,41.419,0,0,1,70.437,98.512a.812.812,0,0,0-1.175-.478c-1.087.652-.724,3.051-.671,4.117a13.077,13.077,0,0,0,.279,2.457c.231.94.654,1.794.829,2.762l1.462-.616c-.514-1.2-.74-2.451-1.283-3.644-.606-1.331-1.1-2.694-1.6-4.069a.841.841,0,0,0-.771-.587c-2.079-.212-3.3-2.3-3.714-4.15a7.432,7.432,0,0,1,1.483-6.55c.741-.793.579-1.3.555-2.4q-.042-1.963.052-3.924a52.77,52.77,0,0,1,.967-7.858C67.053,72.57,65.512,72.139,65.31,73.15Z" transform="translate(-55.555 -63.233)"/></g><path class="b" d="M80.2,164.224c1.139-1.779,1.141-4.066,1.037-6.159a45.4,45.4,0,0,0-.89-7.136c1.982,2.664,7.643,1.617,10.623,1.624,3.519.009,6.911-1.092,10.358-1.539-1.611,3.879.681,9.489,1.662,13.191-6,.852-12.35,2.489-18.406.894-1.484-.39-3.478-.3-4.772-1.005" transform="translate(-35.863 -45.21)"/><path class="c" d="M119.873,92.576c-.065,2.95-2.223,7.525-5.857,5.431a.788.788,0,0,0-1.143.465c-2.722,8-8.057,16.751-16.088,20.327a11.474,11.474,0,0,1-9.423.2,26.3,26.3,0,0,1-8.95-6.882,43.966,43.966,0,0,1-8.219-13.544.793.793,0,0,0-1.143-.466c-5.766,3.009-8.3-10.213-1.9-11.488a.785.785,0,0,0,.571-.75c.056-10.313,2.978-21.955,13.347-26.4a24.211,24.211,0,0,1,13.77-1.505,23.291,23.291,0,0,1,13.463,8.373,31.7,31.7,0,0,1,6.63,19.494.791.791,0,0,0,.778.778c2.927,0,4.105,3.594,4.157,5.965a.778.778,0,0,0,1.556,0c-.071-3.257-1.875-7.521-5.713-7.521l.777.777c-.209-12.224-6.76-25.1-19.114-28.84-9.441-2.859-20.6.478-26.158,8.766-3.932,5.865-5.013,13.194-5.05,20.114l.57-.749c-8.45,1.682-4.975,18.543,3.1,14.331l-1.143-.465c3.179,8.26,9,17.069,17.209,21.046a12.892,12.892,0,0,0,10.025.76,24.355,24.355,0,0,0,10.109-7.222,43.019,43.019,0,0,0,8.336-14.686l-1.143.465A4.748,4.748,0,0,0,119,98.743a8.512,8.512,0,0,0,2.432-6.167A.778.778,0,0,0,119.873,92.576Z" transform="translate(-36.493 -48.546)"/><path class="c" d="M89.179,88.1c0,.792-.047,1.582-.081,2.373-.024.564.016,1.139-.033,1.7-.081.938-1.221,1.441-1.878,1.99a2.094,2.094,0,0,0-.635,2.945,7.071,7.071,0,0,0,2.72,2.265c.889.458,1.677-.885.786-1.344a5.14,5.14,0,0,1-2.267-1.876c-.175-.346.054-.495.331-.747.4-.365.864-.656,1.287-1a3.033,3.033,0,0,0,1.218-2.4c.04-1.3.1-2.606.108-3.908a.779.779,0,0,0-1.557,0Z" transform="translate(-35.639 -47.444)"/><path class="c" d="M79.159,83.422c-.041,2.045.19,4.084.195,6.127a1.2,1.2,0,1,0,2.407,0c-.005-2.043-.236-4.082-.195-6.127a1.2,1.2,0,0,0-2.407,0Z" transform="translate(-35.886 -47.624)"/><path class="c" d="M98.228,83.422c-.041,2.045.189,4.084.195,6.127a1.2,1.2,0,1,0,2.406,0c0-2.043-.236-4.082-.195-6.127a1.2,1.2,0,0,0-2.406,0Z" transform="translate(-35.216 -47.624)"/><path class="c" d="M80.71,115.083A36.359,36.359,0,0,1,78.678,127.9c-.718,2.244-1.562,4.425-2.411,6.622a14.246,14.246,0,0,0-1.194,5.536,13.565,13.565,0,0,0,1.7,5.553,62.808,62.808,0,0,1,2.87,6.51c1.463,4.126,2.235,8.85.621,13.047-.36.936,1.144,1.34,1.5.414,1.5-3.908,1.058-8.357-.106-12.3a44.662,44.662,0,0,0-2.515-6.33c-.983-2.09-2.3-4.164-2.489-6.515a13.346,13.346,0,0,1,1.291-5.945c.868-2.188,1.671-4.387,2.38-6.632a36.7,36.7,0,0,0,1.946-12.786c-.039-1-1.6-1-1.557,0Z" transform="translate(-36.029 -46.496)"/><path class="c" d="M100.11,115.069c0,2.606,0,5.21-.1,7.815a13.959,13.959,0,0,0,.985,5.7,33.329,33.329,0,0,1,2.7,13.1,15.879,15.879,0,0,1-1.818,6.431,18.691,18.691,0,0,0-1.923,5.461c-.523,3.961,1.129,7.861,1.189,11.8a.778.778,0,0,0,1.556,0c-.061-4.009-1.908-8.13-1.124-12.133a28.517,28.517,0,0,1,2.327-5.82,15.23,15.23,0,0,0,1.35-5.744,31.97,31.97,0,0,0-2.474-12.808,14.076,14.076,0,0,1-1.212-5.992c.1-2.6.1-5.21.1-7.815a.778.778,0,0,0-1.556,0Z" transform="translate(-35.158 -46.496)"/><g transform="translate(65.24 74.795)"><path class="c" d="M101.128,122.612c1.292.073,2.4,1.574,3.219,2.436.95,1,2.013,1.836,3.042,2.749,1.409,1.247,2.75,2.572,4.182,3.795a34.516,34.516,0,0,1,2.717,2.3,3.128,3.128,0,0,1,1,1.56c.1.921-.834,1.514-1.475,2.008a12.92,12.92,0,0,0-2.715,2.927,17.962,17.962,0,0,0-2.19,4.1c-.278.761-.389,2.127-.938,2.727-.675.737.422,1.84,1.1,1.1a8.388,8.388,0,0,0,1.209-3.038,16.3,16.3,0,0,1,2.849-5.037c1.023-1.249,2.775-2,3.479-3.487a3.131,3.131,0,0,0-.617-3.274,18.881,18.881,0,0,0-3.134-2.834c-1.626-1.357-3.122-2.868-4.717-4.262-1.273-1.113-2.448-2.255-3.655-3.435a5.42,5.42,0,0,0-3.355-1.9c-1-.057-1,1.5,0,1.556Z" transform="translate(-100.38 -121.055)"/><path class="c" d="M115.328,136.311a36.057,36.057,0,0,1,17.283,9.909c4.9,5.038,8.405,11.249,11.169,17.667.394.917,1.736.125,1.344-.786-2.862-6.645-6.534-13.056-11.656-18.23a37.561,37.561,0,0,0-17.726-10.062.779.779,0,0,0-.414,1.5Z" transform="translate(-99.874 -120.572)"/></g><g transform="translate(0 74.795)"><path class="c" d="M80.946,121.056a5.42,5.42,0,0,0-3.354,1.9c-1.209,1.182-2.381,2.321-3.656,3.435-1.6,1.393-3.091,2.9-4.717,4.262a18.874,18.874,0,0,0-3.133,2.834,3.133,3.133,0,0,0-.617,3.274c.7,1.486,2.454,2.236,3.478,3.487a16.288,16.288,0,0,1,2.85,5.037,8.429,8.429,0,0,0,1.209,3.038c.678.74,1.775-.363,1.1-1.1-.551-.6-.66-1.962-.939-2.727a17.435,17.435,0,0,0-2.076-3.942,13.283,13.283,0,0,0-2.829-3.09c-.589-.454-1.447-1-1.475-1.816a2.77,2.77,0,0,1,1-1.752,35.177,35.177,0,0,1,2.718-2.3c1.374-1.169,2.661-2.438,4.006-3.638,1.084-.967,2.215-1.854,3.218-2.906.82-.86,1.929-2.362,3.218-2.436,1-.057,1-1.613,0-1.556Z" transform="translate(-36.375 -121.055)"/><path class="c" d="M66.807,134.81a37.561,37.561,0,0,0-17.726,10.062c-5.122,5.174-8.793,11.585-11.656,18.23-.392.911.948,1.7,1.344.786,2.764-6.418,6.265-12.629,11.168-17.667a36.065,36.065,0,0,1,17.284-9.909.779.779,0,0,0-.414-1.5Z" transform="translate(-37.354 -120.572)"/></g><path class="c" d="M79.394,150.371c1.5,2.645,6,2.787,8.649,2.925,4.65.242,10.417.213,14.36-2.647.8-.582.027-1.933-.786-1.343-3.647,2.644-8.915,2.636-13.218,2.45a26.387,26.387,0,0,1-4.044-.443c-1.195-.24-2.96-.565-3.618-1.729a.779.779,0,0,0-1.344.786Z" transform="translate(-35.881 -45.272)"/><path class="c" d="M81.047,156.661c2.568,2.391,6.567,2.628,9.893,2.5a34.725,34.725,0,0,0,5.025-.567,14.353,14.353,0,0,0,5.9-2.055c.8-.585.025-1.935-.786-1.344a13.073,13.073,0,0,1-5.323,1.859,31.864,31.864,0,0,1-4.55.539c-2.94.139-6.758.107-9.055-2.033-.733-.681-1.835.416-1.1,1.1Z" transform="translate(-35.828 -45.065)"/><path class="c" d="M81.124,163.625a27.308,27.308,0,0,1,5.634.768,34.223,34.223,0,0,0,5.647.33,24.946,24.946,0,0,0,5.506-.517c1.6-.365,3.027-1.253,4.633-1.585.979-.2.565-1.7-.414-1.5-1.605.331-3.032,1.225-4.633,1.585a24.818,24.818,0,0,1-5.487.461,29.607,29.607,0,0,1-5.546-.4,23.224,23.224,0,0,0-5.339-.694c-1,.043-1,1.6,0,1.556Z" transform="translate(-35.843 -44.853)"/><path class="c" d="M88.78,104.894c3.04.4,6.534.114,8.719-2.3.67-.741-.426-1.845-1.1-1.1-1.912,2.113-4.985,2.186-7.619,1.845a.782.782,0,0,0-.777.778.8.8,0,0,0,.777.777Z" transform="translate(-35.575 -46.956)"/><path class="b" d="M104.734,93.731c-1.476-.363-6.474-.759-6.8,1.265-.415,2.56,7.039,2.239,8.512,1.184C108.777,94.51,104.734,93.731,104.734,93.731Z" transform="translate(-35.226 -47.23)"/><path class="b" d="M80.006,93.731c-1.476-.363-6.473-.759-6.8,1.265-.415,2.56,7.039,2.239,8.512,1.184C84.05,94.51,80.006,93.731,80.006,93.731Z" transform="translate(-36.095 -47.23)"/><g transform="translate(27.515)"><g transform="translate(4.661 55.323)"><path class="b" d="M69.2,103.019a11.421,11.421,0,0,0,.786,2.545A10.278,10.278,0,0,0,69.2,103.019Z" transform="translate(-68.411 -102.217)"/><path class="c" d="M68.46,103.258A12.381,12.381,0,0,0,69.326,106a.8.8,0,0,0,.478.367.832.832,0,0,0,.521-.04.767.767,0,0,0,.382-.327.93.93,0,0,0,.081-.616,11.13,11.13,0,0,0-.866-2.737.8.8,0,0,0-.478-.367.815.815,0,0,0-.616.081.8.8,0,0,0-.367.477.945.945,0,0,0,.081.617l.038.089-.081-.192a10.175,10.175,0,0,1,.747,2.456l1.462-.616c-.036-.081-.072-.163-.108-.244l.081.192a12.021,12.021,0,0,1-.678-2.3.8.8,0,0,0-.983-.558A.819.819,0,0,0,68.46,103.258Z" transform="translate(-68.438 -102.244)"/></g><path class="b" d="M68.116,67.02c-.72,2.269-1.866,4.233-2.357,6.623A54.609,54.609,0,0,0,64.782,87.3m0,0a47.176,47.176,0,0,0,1,7.584,54.283,54.283,0,0,0,2.246,6.959c.365,1,.887,2.011,1.33,3.048a19.455,19.455,0,0,1-.1-6.392c.646-4.373,1.31-8.536,3.352-12.335.8.9.531,2.834.9,4.045a8.22,8.22,0,0,0,1.436,3.2A36.209,36.209,0,0,1,79.868,76.46,21.163,21.163,0,0,1,85.812,69.3a25.354,25.354,0,0,1,5.236-3.306c-.941,1.839-1.819,4.206-3.65,5.156,2.738-1.358,5.43-2.654,8.1-4.164A20.79,20.79,0,0,0,98.713,64.8c.018,1.266.922,11.434,1.772,14.129.681,2.159,2.517,4.086,3.888,5.746.826,1,3,2.291,2.958,3.819,0-2.18-.112-4.407.02-6.575.7,1.3,1.062,3.082,1.643,4.535a41.988,41.988,0,0,1,2.373,7.98c.761,4.218,1.222,9.179-.013,13.334,1.328-1.866,2.1-4.234,3.212-6.3,1.938-3.613,2.83-7.491,3.976-11.473,1.695-5.89,2.771-11.644,1.353-17.816-1.137-4.942-2.994-10.808-6.889-13.712-1.246-.93-2.191-1.69-3.722-1.775a15.586,15.586,0,0,0-4.485.086,4.96,4.96,0,0,0-1.16-4.319,10.466,10.466,0,0,0-6.318-2.747,33.2,33.2,0,0,0-9.159.525c-3.459.609-6.1,2.517-9.094,4.367a41.358,41.358,0,0,0-4.549,3.639,21.629,21.629,0,0,0-3.964,3.841,16.429,16.429,0,0,0-2.438,4.936" transform="translate(-63.908 -48.771)"/><path class="c" d="M67.372,66.242c-.51,1.554-1.22,3.028-1.768,4.567a26.2,26.2,0,0,0-1.122,5.161,56.847,56.847,0,0,0-.473,10.769c.052,1.024,1.652,1.03,1.6,0a54.867,54.867,0,0,1,.47-10.715,24.99,24.99,0,0,1,1.068-4.791c.548-1.539,1.257-3.013,1.768-4.566.322-.98-1.222-1.4-1.542-.425Z" transform="translate(-63.935 -48.205)"/><path class="c" d="M64.006,87.332a44.357,44.357,0,0,0,1.39,9.225,65.738,65.738,0,0,0,3.3,8.771c.387.883,1.612.21,1.462-.617A26.4,26.4,0,0,1,70.6,95.28,29.7,29.7,0,0,1,73.325,86.6H71.945c.8,1.08.52,2.73.858,3.993a7.991,7.991,0,0,0,1.6,3.416.808.808,0,0,0,1.365-.566A35.779,35.779,0,0,1,80.475,77.09a22.847,22.847,0,0,1,4.518-6.045,21.939,21.939,0,0,1,6.293-4.256l-.9-1.175c-.872,1.734-1.6,3.85-3.363,4.869-.9.519-.108,1.834.807,1.381,3.9-1.929,8.094-3.687,11.477-6.465l-1.365-.566a88.805,88.805,0,0,0,1.188,11.309,13.1,13.1,0,0,0,2.131,5.942A31.741,31.741,0,0,0,104,85.462c.808.859,2.473,1.768,2.554,3.063a.8.8,0,0,0,1.6,0c-.006-2.192-.1-4.384.02-6.575l-1.491.4a55.213,55.213,0,0,1,2.082,5.7,40.533,40.533,0,0,1,1.853,6.624c.778,4.227,1.169,8.721-.013,12.908a.8.8,0,0,0,1.462.616,50.94,50.94,0,0,0,3.007-5.91,40.723,40.723,0,0,0,2.5-5.959,83.668,83.668,0,0,0,3.434-13.505,31.559,31.559,0,0,0-.769-12.674,27.022,27.022,0,0,0-4.473-10.069,12.708,12.708,0,0,0-4.575-3.718,11.85,11.85,0,0,0-6.581-.331l.983.984c1.489-9.728-13.674-8.9-19.358-7.1-4.125,1.306-7.99,4.1-11.223,6.9A35.111,35.111,0,0,0,70.279,61.2a17.778,17.778,0,0,0-2.91,5.639c-.322.98,1.222,1.4,1.542.425a15.641,15.641,0,0,1,2.773-5.27,30.033,30.033,0,0,1,3.774-3.449,42.69,42.69,0,0,1,9.374-6.356A24.5,24.5,0,0,1,96.859,50.5c3.325.286,7.821,1.988,7.192,6.1a.813.813,0,0,0,.984.983c1.785-.371,4.37-.42,5.994.494a12.237,12.237,0,0,1,3.816,3.425,27.352,27.352,0,0,1,3.948,9.455A29.546,29.546,0,0,1,119.36,83.1a91.139,91.139,0,0,1-3.05,11.923,39.93,39.93,0,0,1-2.616,6.464,50.955,50.955,0,0,1-3.007,5.911l1.462.616c1.225-4.341.853-8.945.088-13.335a40.677,40.677,0,0,0-1.927-7.048,58.618,58.618,0,0,0-2.243-6.081c-.377-.753-1.451-.334-1.49.4-.115,2.191-.026,4.383-.021,6.575h1.6a4.417,4.417,0,0,0-1.634-2.91,32.681,32.681,0,0,1-2.583-2.69,12.656,12.656,0,0,1-2.7-4.319,19.179,19.179,0,0,1-.488-2.368,83.7,83.7,0,0,1-1.214-11.406.811.811,0,0,0-1.365-.565c-3.259,2.677-7.4,4.357-11.153,6.216l.807,1.381c2.052-1.183,2.922-3.424,3.937-5.443.281-.558-.2-1.448-.9-1.175a24.185,24.185,0,0,0-6.545,4.267,22.973,22.973,0,0,0-5.01,6.386,37.7,37.7,0,0,0-5.137,17.545l1.365-.565a7.2,7.2,0,0,1-1.391-3.737,6.611,6.611,0,0,0-.817-3.348.81.81,0,0,0-1.381,0,31.861,31.861,0,0,0-2.963,9.517,27.811,27.811,0,0,0-.366,9.825l1.462-.616a62.769,62.769,0,0,1-3.139-8.388,42.207,42.207,0,0,1-1.333-8.8c-.059-1.024-1.659-1.03-1.6,0Z" transform="translate(-63.933 -48.798)"/></g><path class="c" d="M71.638,81.787c.076-6.619,3.66-12.394,8.54-16.65a35.743,35.743,0,0,1,19.071-8.385l-.566-1.364c-.772.911-1.515,1.848-2.239,2.8a13.34,13.34,0,0,0-2.491,4.061.8.8,0,0,0,1.542.425,12.45,12.45,0,0,1,2.329-3.679q.963-1.262,1.99-2.476c.387-.456.191-1.466-.565-1.365a38.289,38.289,0,0,0-11.583,3.222,37.559,37.559,0,0,0-8.62,5.63c-5.193,4.535-8.928,10.753-9.008,17.782a.8.8,0,0,0,1.6,0Z" transform="translate(-36.206 -48.575)"/><path class="c" d="M106.323,74.337c-.525-4.093-.9-8.259-1.693-12.31l-1.174.9a14.32,14.32,0,0,1,5.309,5.911,33.806,33.806,0,0,1,3.627,11.693c.141,1.015,1.682.583,1.542-.425a34.691,34.691,0,0,0-3.9-12.28,15.641,15.641,0,0,0-5.77-6.279.809.809,0,0,0-1.174.9c.769,3.911,1.129,7.932,1.636,11.884.129,1.007,1.731,1.02,1.6,0Z" transform="translate(-35.045 -48.354)"/></g></g></svg>