<svg xmlns="http://www.w3.org/2000/svg" width="155.56" height="155.56" viewBox="0 0 155.56 155.56"><defs><style>.a{fill:#fff;stroke:#707070;}.b{fill:#1594c4;}.c{fill:#042189;}.d{stroke:none;}.e{fill:none;}</style></defs><g transform="translate(-513 -163)"><g class="a" transform="translate(513 163)"><circle class="d" cx="77.78" cy="77.78" r="77.78"/><circle class="e" cx="77.78" cy="77.78" r="77.28"/></g><g transform="translate(535 176)"><g transform="translate(45.301 73.119)"><path class="b" d="M99.008,265.836l2.065,1.279A2.451,2.451,0,0,0,99.008,265.836Z" transform="translate(-80.435 -265.836)"/><path class="b" d="M81.065,267.115l2.066-1.279A2.451,2.451,0,0,0,81.065,267.115Z" transform="translate(-81.065 -265.836)"/></g><path class="c" d="M120.44,237.808c-.068,3.143-2.493,7.762-6.173,5.211a.784.784,0,0,0-1.143.465c-2.236,8.151-6.918,17.223-15.214,20.555-7.821,3.142-16.3-.344-21.255-6.748a35.868,35.868,0,0,1-6.1-13.372.791.791,0,0,0-1.144-.465c-3.4,1.516-5.42-2.692-5.481-5.441-.058-2.642,1.292-6.248,4.437-6.162a.788.788,0,0,0,.778-.778c0-10,2.852-21.932,12.853-26.4a23.365,23.365,0,0,1,13.579-1.485,21.9,21.9,0,0,1,13.086,8.4c4.254,5.582,6.072,12.62,6.113,19.561a.791.791,0,0,0,.984.75c3.207-.535,4.622,3.4,4.677,5.914a.779.779,0,0,0,1.557,0c-.081-3.675-2.348-8.132-6.647-7.415l.984.75c-.071-12.024-5.948-25.169-18.246-28.936-9.287-2.844-20.154.385-25.5,8.649-3.792,5.865-5,13.346-5,20.216l.777-.777c-4.343-.119-6.333,4.834-5.94,8.525.415,3.886,3.56,7.853,7.77,5.977l-1.143-.466c2.115,8.487,6.743,17.354,15.209,20.909a18.987,18.987,0,0,0,12.69.779,21.85,21.85,0,0,0,10.284-7.211,39.781,39.781,0,0,0,7.386-14.911l-1.143.465a4.715,4.715,0,0,0,5.963-.285,8.44,8.44,0,0,0,2.552-6.27A.779.779,0,0,0,120.44,237.808Z" transform="translate(-36.42 -194.988)"/><path class="c" d="M89.745,234.557c0,.792-.048,1.582-.082,2.373-.024.564.017,1.139-.032,1.7-.082.937-1.222,1.44-1.878,1.99a2.094,2.094,0,0,0-.636,2.945,7.078,7.078,0,0,0,2.72,2.265c.889.458,1.677-.885.786-1.344a5.132,5.132,0,0,1-2.266-1.876c-.176-.347.053-.495.33-.747.4-.365.864-.656,1.287-1a3.033,3.033,0,0,0,1.218-2.4c.04-1.3.1-2.606.108-3.908a.778.778,0,0,0-1.556,0Z" transform="translate(-35.564 -193.843)"/><path class="c" d="M79.724,228.653c-.04,2.045.19,4.083.195,6.127a1.2,1.2,0,0,0,2.407,0c-.005-2.044-.236-4.082-.195-6.127a1.2,1.2,0,0,0-2.407,0Z" transform="translate(-35.811 -194.066)"/><path class="c" d="M98.793,228.653c-.041,2.045.189,4.083.195,6.127a1.2,1.2,0,0,0,2.406,0c0-2.044-.235-4.082-.195-6.127a1.2,1.2,0,1,0-2.406,0Z" transform="translate(-35.141 -194.066)"/><path class="b" d="M105.3,238.961c-1.476-.363-6.473-.759-6.8,1.265-.415,2.56,7.039,2.239,8.512,1.185C109.343,239.74,105.3,238.961,105.3,238.961Z" transform="translate(-35.152 -193.672)"/><path class="b" d="M80.571,238.961c-1.476-.363-6.473-.759-6.8,1.265-.415,2.56,7.04,2.239,8.512,1.185C84.615,239.74,80.571,238.961,80.571,238.961Z" transform="translate(-36.02 -193.672)"/><path class="c" d="M83.052,262.372a7.339,7.339,0,0,1-.223,2.03c-.178.916-.4,1.823-.633,2.724-.294,1.127-.61,2.25-.956,3.362-.3.959,1.2,1.368,1.5.414.355-1.142.679-2.3.979-3.453.237-.915.46-1.835.635-2.765a9.842,9.842,0,0,0,.254-2.312c-.053-1-1.61-1-1.556,0Z" transform="translate(-35.759 -192.865)"/><path class="c" d="M97.927,261.829a12.828,12.828,0,0,0,.489,4.248,10.679,10.679,0,0,0,1.55,3.8.8.8,0,0,0,1.065.279.783.783,0,0,0,.278-1.064,9.428,9.428,0,0,1-1.393-3.428,11.4,11.4,0,0,1-.432-3.835.784.784,0,0,0-.778-.778.8.8,0,0,0-.778.778Z" transform="translate(-35.172 -192.885)"/><g transform="translate(39.363 72.357)"><g transform="translate(19.455)"><path class="c" d="M98.973,266.611c.673.109,1.489.325,1.638,1.1a3.2,3.2,0,0,1-.9,2.457c-1.251,1.35-3.33,1.593-5.037,1.946a.789.789,0,0,0-.465,1.143,26.892,26.892,0,0,0,2.9,4.409c1.018,1.4,2.145,3.306,4.181,2.6a8.579,8.579,0,0,0,2.943-2.172,14.648,14.648,0,0,0,2.3-2.625,3.4,3.4,0,0,0,.449-3.162,6.825,6.825,0,0,0-1.268-1.689,54.719,54.719,0,0,0-3.915-4.016c-.74-.672-1.844.425-1.1,1.1,1,.912,1.942,1.908,2.874,2.892.532.561,1.064,1.126,1.56,1.72a1.574,1.574,0,0,1,.433,1.609,6.643,6.643,0,0,1-1.783,2.429,15.967,15.967,0,0,1-2.235,2.031c-.74.5-1.355.7-1.984-.034-.43-.5-.813-1.051-1.2-1.586a26.291,26.291,0,0,1-2.807-4.286l-.465,1.143c2.322-.48,5.05-.961,6.359-3.192a4.192,4.192,0,0,0,.57-3.438,3.177,3.177,0,0,0-2.63-1.868c-.979-.158-1.4,1.342-.413,1.5Z" transform="translate(-94.122 -265.1)"/></g><path class="c" d="M83.126,265.111a3.191,3.191,0,0,0-2.59,1.775,4.124,4.124,0,0,0,.53,3.531c1.3,2.234,4.042,2.713,6.359,3.192l-.465-1.143a23.709,23.709,0,0,1-2.4,3.715c-.44.619-.883,1.239-1.353,1.836-.423.541-.821,1.03-1.569.737a8.131,8.131,0,0,1-2.448-1.96,11.519,11.519,0,0,1-1.913-2.2,1.707,1.707,0,0,1-.1-2.042c.314-.426.871-1.015,1.3-1.473,1.077-1.158,2.17-2.326,3.34-3.389.743-.675-.36-1.772-1.1-1.1-1.207,1.1-2.334,2.3-3.441,3.5-1.22,1.32-2.488,2.625-1.706,4.558a9.019,9.019,0,0,0,2.123,2.857,15.064,15.064,0,0,0,2.722,2.365,2.733,2.733,0,0,0,3.069.108,7.6,7.6,0,0,0,1.5-1.736q1.019-1.366,1.972-2.782a15.872,15.872,0,0,0,1.35-2.2.788.788,0,0,0-.465-1.143c-1.706-.353-3.785-.6-5.037-1.946a3.287,3.287,0,0,1-.915-2.391c.112-.814.96-1.05,1.653-1.161.985-.158.567-1.658-.414-1.5Z" transform="translate(-75.328 -265.1)"/></g><g transform="translate(0 78.826)"><path class="b" d="M79.419,309.529c.824-.53.674-2.661.752-3.5.166-1.788.627-3.558.721-5.355a61.238,61.238,0,0,1,1.226-9.86c.3-1.379.218-2.883.628-4.193,1.609,1.378,4.508.931,6.572,1.026,2.653.122,5.279.2,7.913.068.325-.017,1.387-.234,1.62-.077.266.181.043.936-.01,1.271a23.9,23.9,0,0,0-.438,3.871c.009,3.275,0,6.542,0,9.82a25.341,25.341,0,0,0,.242,4.491,13.55,13.55,0,0,0,.48,3.009,6.477,6.477,0,0,0-2.871-.423c-1.543-.012-3.077-.207-4.621-.222-1.856-.019-3.733.087-5.588,0-1.188-.053-2.376-.078-3.573-.078H79.941" transform="translate(-35.821 -270.814)"/><path class="c" d="M38.85,309.811a87.994,87.994,0,0,1,6.045-13.4,43.048,43.048,0,0,1,6.578-9.357c3.31-3.4,7.889-5.457,12.082-7.533,4.723-2.338,9.475-4.59,14.345-6.61.911-.379.511-1.885-.414-1.5-4.276,1.774-8.476,3.7-12.631,5.741-4.57,2.244-9.648,4.373-13.467,7.823-5.47,4.94-8.955,12.187-11.824,18.853-.789,1.833-1.556,3.684-2.215,5.569-.331.947,1.172,1.354,1.5.414Z" transform="translate(-37.301 -271.35)"/><path class="c" d="M145.534,309.4a83,83,0,0,0-5.884-14.186,40.21,40.21,0,0,0-6.419-9.358c-3.351-3.465-8.009-5.566-12.268-7.673-4.844-2.4-9.722-4.7-14.715-6.768-.924-.383-1.327,1.122-.414,1.5,4.223,1.753,8.363,3.672,12.466,5.686,2.52,1.236,5.041,2.472,7.489,3.846a28.359,28.359,0,0,1,5.544,3.725c5.2,4.826,8.353,11.974,10.874,18.482.658,1.7,1.292,3.416,1.826,5.159.293.954,1.795.548,1.5-.414Z" transform="translate(-34.912 -271.35)"/><path class="c" d="M80.267,310.115c1-5.216,1.132-10.521,1.921-15.761.382-2.537.886-5.059,1.139-7.614.273-2.75.052-5.539.888-8.209.3-.959-1.2-1.368-1.5-.414-.756,2.412-.685,4.891-.841,7.386-.178,2.839-.763,5.63-1.185,8.437-.789,5.241-.923,10.547-1.922,15.762-.187.978,1.312,1.4,1.5.413Z" transform="translate(-35.845 -271.131)"/><path class="c" d="M99.308,310.662c.166-5.255-.045-10.509-.154-15.763-.053-2.546-.08-5.094-.022-7.639.06-2.665.449-5.271.7-7.919.1-1-1.462-.99-1.557,0-.253,2.648-.642,5.253-.7,7.919-.058,2.545-.03,5.093.023,7.639.109,5.254.32,10.508.154,15.763-.032,1,1.525,1,1.556,0Z" transform="translate(-35.185 -271.095)"/><g transform="translate(43.446 14.609)"><path class="c" d="M81.765,286.757c1.892,1.584,4.827,1.336,7.135,1.359,1.484.014,2.958.181,4.443.2a27.433,27.433,0,0,0,5.5-.443c.982-.184.566-1.684-.414-1.5-3.066.575-6.048.239-9.13.186-1.15-.02-2.3,0-3.45-.083a5.344,5.344,0,0,1-2.982-.825c-.763-.639-1.869.457-1.1,1.1Z" transform="translate(-79.195 -285.463)"/><path class="c" d="M81.54,291.838a9.251,9.251,0,0,0,4.084.782c1.9.113,3.8.287,5.692.461,2.529.234,5.588,1.148,7.986-.058.9-.45.109-1.793-.785-1.344a6.625,6.625,0,0,1-3.431.278c-1.261-.107-2.51-.317-3.77-.433-1.71-.157-3.423-.282-5.133-.422-1.257-.1-2.724.032-3.857-.608a.779.779,0,0,0-.786,1.344Z" transform="translate(-79.207 -285.29)"/><path class="c" d="M80.963,296.492c3.516.475,7.045.847,10.587,1.048,1.288.073,2.565.233,3.851.317a7.9,7.9,0,0,0,3.479-.312c.913-.375.513-1.881-.414-1.5a7.331,7.331,0,0,1-3.316.238c-1.2-.09-2.4-.231-3.6-.3-3.4-.194-6.8-.536-10.174-.992-.979-.133-1.4,1.366-.413,1.5Z" transform="translate(-79.233 -285.129)"/><path class="c" d="M80.533,301.353a54.359,54.359,0,0,1,8.842.685,91.283,91.283,0,0,0,9.319.5.779.779,0,0,0,0-1.557,90.4,90.4,0,0,1-9.319-.5,54.241,54.241,0,0,0-8.842-.685c-1,.056-1,1.613,0,1.556Z" transform="translate(-79.255 -284.961)"/><path class="c" d="M80.025,306.438c3.159,0,6.318-.024,9.477.069,3.121.092,6.221.568,9.343.588a.778.778,0,0,0,0-1.556c-3.122-.021-6.222-.5-9.343-.589-3.158-.092-6.317-.069-9.477-.069a.779.779,0,0,0,0,1.557Z" transform="translate(-79.273 -284.781)"/></g></g><g transform="translate(16.48)"><path class="c" d="M91.231,195.977c-4.289.117-9,.385-12.856,2.4a30.209,30.209,0,0,0-9.781,8.054c-2.507,3.193-4.077,7.484-7.172,10.2-2.554,2.238-4.334,1.648-7.436,1.806a18.938,18.938,0,0,0,9.993,3.736c-1.528.469-2.949,1.317-4.5,1.8a20.009,20.009,0,0,1-4.966.572c1.2,1.288,4.119,1.423,5.755,1.745a27.178,27.178,0,0,0,5.469.47l1.72,0a13.625,13.625,0,0,0,.982,4.825,20.769,20.769,0,0,0,1.97,3.634c.935,1.295,3.143,3.523,4.035,3.813-1.124-3.584-2.128-11.913-2.168-12.29a84.108,84.108,0,0,0,16.676-1.527c6.384-1.4,13.645-6.033,14.793-7.393l0,.006c.707.026,2.886,2.35,3.471,3.124,5.186,6.862,5.334,15.717,3.494,17.667,3.089-2.074,7.511-7.81,7.486-13.388C118.17,219.269,117.14,195.271,91.231,195.977Z" transform="translate(-53.195 -195.172)"/><path class="c" d="M74.475,239.845a.786.786,0,0,1-.243-.038c-1.19-.387-3.546-2.876-4.431-4.1a21.433,21.433,0,0,1-2.052-3.774,13.221,13.221,0,0,1-1-4.359h-.986a27.83,27.83,0,0,1-5.62-.485c-.334-.065-.725-.122-1.142-.184-1.741-.258-3.908-.579-5.04-1.8a.789.789,0,0,1,.534-1.325c.315-.018.629-.031.943-.045a14.767,14.767,0,0,0,3.831-.494,16.545,16.545,0,0,0,1.756-.688A19.235,19.235,0,0,1,53.5,219.06a.789.789,0,0,1,.471-1.39c.662-.033,1.266-.034,1.831-.034,2.005,0,3.329,0,5.126-1.578a23.7,23.7,0,0,0,4.345-5.9A37.929,37.929,0,0,1,68,205.968,31.073,31.073,0,0,1,78.037,197.7c3.97-2.071,8.7-2.363,13.2-2.486h0c8.189-.215,14.754,1.976,19.464,6.539,7.172,6.95,8.286,17.706,8.312,23.5.028,5.976-4.658,11.915-7.835,14.048a.79.79,0,0,1-1.014-1.2c1.446-1.532,1.6-9.831-3.548-16.648a17,17,0,0,0-2.668-2.665,40.8,40.8,0,0,1-14.8,7.223A82.021,82.021,0,0,1,73.2,227.543a88.4,88.4,0,0,0,2.033,11.277.789.789,0,0,1-.754,1.026ZM57.952,225.134c.444.081.885.146,1.285.2.444.066.86.128,1.216.2a25.989,25.989,0,0,0,5.314.455l1.719,0a.793.793,0,0,1,.791.741,12.724,12.724,0,0,0,.914,4.551,20.111,20.111,0,0,0,1.89,3.495,18.009,18.009,0,0,0,2.072,2.3c-.916-4.16-1.623-10.163-1.631-10.232a.791.791,0,0,1,.775-.874,83.465,83.465,0,0,0,16.518-1.508c6.209-1.356,13.3-5.872,14.358-7.132a.789.789,0,0,1,.868-.234c1.41.376,3.809,3.366,3.833,3.4,3.841,5.084,5.165,11.553,4.632,15.563,2.5-2.646,4.945-6.839,4.926-10.806-.024-5.545-1.074-15.825-7.832-22.371-4.392-4.255-10.544-6.314-18.322-6.095h0c-4.318.118-8.84.392-12.513,2.308a29.5,29.5,0,0,0-9.525,7.842,36.756,36.756,0,0,0-2.609,4.017,24.853,24.853,0,0,1-4.664,6.286,7.407,7.407,0,0,1-5.416,1.965,18.784,18.784,0,0,0,7.486,2.194.79.79,0,0,1,.2,1.544,18.928,18.928,0,0,0-2.166.867,21.162,21.162,0,0,1-2.327.931A10.693,10.693,0,0,1,57.952,225.134ZM91.258,196h0Z" transform="translate(-53.222 -195.199)"/><g transform="translate(18.621 30.911)"><path class="b" d="M71.982,225.823c0,.307-.005.617-.008.925l.008.015Z" transform="translate(-71.184 -225.034)"/><path class="c" d="M72.009,227.579a.791.791,0,0,1-.657-.351c-.018-.028-.038-.063-.054-.093a.535.535,0,0,1-.087-.367l.008-.918a.79.79,0,0,1,1.58,0v.94a.789.789,0,0,1-.561.756A.762.762,0,0,1,72.009,227.579Z" transform="translate(-71.211 -225.061)"/></g></g><path class="c" d="M84.134,250.1a10.43,10.43,0,0,0,8.609,2.533,10.65,10.65,0,0,0,5.98-3.189c.67-.741-.428-1.846-1.1-1.1a9.241,9.241,0,0,1-4.95,2.724A8.741,8.741,0,0,1,85.234,249c-.762-.642-1.867.454-1.1,1.1Z" transform="translate(-35.665 -193.34)"/></g></g></svg>