<svg xmlns="http://www.w3.org/2000/svg" width="155.56" height="155.56" viewBox="0 0 155.56 155.56"><defs><style>.a{fill:#fff;stroke:#707070;}.b{fill:#1594c4;}.c{fill:#042189;}.d{stroke:none;}.e{fill:none;}</style></defs><g transform="translate(-509 -352)"><g class="a" transform="translate(509 352)"><circle class="d" cx="77.78" cy="77.78" r="77.78"/><circle class="e" cx="77.78" cy="77.78" r="77.28"/></g><g transform="translate(531 361)"><g transform="translate(40.113 76.695)"><path class="b" d="M417.491,122.854l2.066,1.28A2.452,2.452,0,0,0,417.491,122.854Z" transform="translate(-393.73 -122.854)"/><path class="b" d="M425.273,129.331a55.874,55.874,0,0,0-4.91-5.24h0a3.191,3.191,0,0,1-.385,2.727c-1.13,2.172-4,2.579-5.98,2.992a50.221,50.221,0,0,0-3.954,6.724,50.224,50.224,0,0,0-3.954-6.724c-1.975-.413-4.85-.82-5.98-2.992a3.191,3.191,0,0,1-.385-2.727h0a56,56,0,0,0-4.909,5.24c-1.038,1.73,1.068,3.776,2.285,4.965,1.337,1.306,3.28,3.305,4.726,1.7a59.125,59.125,0,0,0,3.637-5.088l-2.813,4.926c.825.8,5.552,1.928,7.394,1.437,1.841.492,6.569-.636,7.394-1.437l-2.814-4.926a58.969,58.969,0,0,0,3.637,5.088c1.446,1.607,3.389-.392,4.726-1.7C424.2,133.107,426.311,131.061,425.273,129.331Z" transform="translate(-394.537 -122.811)"/><path class="b" d="M399.549,124.134l2.065-1.28A2.452,2.452,0,0,0,399.549,124.134Z" transform="translate(-394.36 -122.854)"/></g><path class="c" d="M357.333,166.829a88.045,88.045,0,0,1,6.046-13.4,43.039,43.039,0,0,1,6.578-9.357c3.31-3.4,7.888-5.457,12.081-7.533,4.724-2.338,9.476-4.59,14.345-6.61.912-.378.512-1.884-.413-1.5-4.276,1.774-8.476,3.7-12.631,5.741-4.571,2.243-9.648,4.373-13.467,7.821-5.47,4.94-8.955,12.188-11.824,18.853-.789,1.833-1.556,3.684-2.215,5.569-.331.947,1.171,1.355,1.5.414Z" transform="translate(-355.785 -45.966)"/><path class="c" d="M464.017,166.415a82.939,82.939,0,0,0-5.883-14.185,40.227,40.227,0,0,0-6.419-9.359c-3.352-3.465-8.01-5.565-12.268-7.673-4.844-2.4-9.722-4.7-14.716-6.767-.923-.384-1.327,1.121-.413,1.5,4.223,1.752,8.362,3.672,12.466,5.686,2.52,1.237,5.041,2.472,7.489,3.846a28.435,28.435,0,0,1,5.544,3.725c5.2,4.826,8.352,11.975,10.874,18.482.658,1.7,1.292,3.416,1.826,5.159.293.954,1.795.548,1.5-.414Z" transform="translate(-353.396 -45.966)"/><path class="c" d="M438.922,94.824c-.068,3.114-2.525,7.807-6.172,5.211a.785.785,0,0,0-1.144.465c-2.231,8.154-6.916,17.223-15.213,20.555-7.821,3.142-16.3-.343-21.254-6.749a35.838,35.838,0,0,1-6.092-13.379.79.79,0,0,0-1.143-.465c-3.4,1.552-5.429-2.7-5.489-5.431-.057-2.593,1.3-6.322,4.445-6.155a.787.787,0,0,0,.777-.778c0-10.009,2.842-21.933,12.849-26.405a23.361,23.361,0,0,1,13.577-1.49,21.9,21.9,0,0,1,13.087,8.4c4.254,5.582,6.069,12.621,6.11,19.561a.792.792,0,0,0,.985.75c3.21-.535,4.622,3.4,4.677,5.914a.778.778,0,0,0,1.556,0c-.081-3.678-2.344-8.131-6.647-7.415l.985.75c-.072-12.024-5.944-25.169-18.244-28.936-9.286-2.842-20.153.39-25.494,8.651-3.795,5.868-5,13.348-5,20.222l.778-.778c-4.35-.229-6.334,4.9-5.948,8.52.413,3.867,3.575,7.885,7.777,5.967l-1.143-.465c2.109,8.489,6.734,17.36,15.2,20.916a18.987,18.987,0,0,0,12.69.779,21.851,21.851,0,0,0,10.286-7.211,39.731,39.731,0,0,0,7.384-14.911l-1.143.465a4.7,4.7,0,0,0,5.847-.181,8.355,8.355,0,0,0,2.667-6.373A.778.778,0,0,0,438.922,94.824Z" transform="translate(-354.904 -48.431)"/><path class="c" d="M408.229,90.354c0,.792-.048,1.582-.082,2.373-.024.564.017,1.139-.032,1.7-.082.938-1.223,1.44-1.879,1.99a2.1,2.1,0,0,0-.635,2.945,7.059,7.059,0,0,0,2.72,2.264c.889.459,1.677-.884.786-1.343a5.14,5.14,0,0,1-2.267-1.876c-.175-.347.054-.495.331-.747.4-.365.864-.656,1.287-1a3.033,3.033,0,0,0,1.218-2.4c.04-1.3.1-2.606.108-3.908a.778.778,0,0,0-1.556,0Z" transform="translate(-354.048 -47.328)"/><path class="c" d="M398.208,85.671c-.041,2.045.19,4.083.195,6.127a1.2,1.2,0,1,0,2.407,0c-.005-2.044-.236-4.082-.195-6.127a1.2,1.2,0,0,0-2.407,0Z" transform="translate(-354.295 -47.508)"/><path class="c" d="M417.277,85.671c-.041,2.045.189,4.083.195,6.127a1.2,1.2,0,1,0,2.406,0c0-2.044-.236-4.082-.195-6.127a1.213,1.213,0,0,0-1.2-1.2,1.226,1.226,0,0,0-1.2,1.2Z" transform="translate(-353.625 -47.508)"/><path class="c" d="M402.14,105.5a10.438,10.438,0,0,0,8.609,2.533,10.659,10.659,0,0,0,5.981-3.189c.669-.742-.428-1.846-1.1-1.1a9.242,9.242,0,0,1-4.951,2.723,8.742,8.742,0,0,1-7.438-2.067c-.762-.641-1.867.454-1.1,1.1Z" transform="translate(-354.166 -46.84)"/><path class="b" d="M423.783,95.98c-1.476-.363-6.474-.759-6.8,1.264-.415,2.561,7.039,2.239,8.512,1.185C427.827,96.759,423.783,95.98,423.783,95.98Z" transform="translate(-353.636 -47.114)"/><path class="b" d="M399.055,95.98c-1.476-.363-6.473-.759-6.8,1.264-.415,2.561,7.039,2.239,8.512,1.185C403.1,96.759,399.055,95.98,399.055,95.98Z" transform="translate(-354.504 -47.114)"/><path class="c" d="M401.536,119.391a7.332,7.332,0,0,1-.224,2.029c-.177.916-.4,1.823-.634,2.726-.294,1.127-.61,2.249-.955,3.362-.3.959,1.2,1.368,1.5.413q.533-1.713.979-3.453c.237-.915.46-1.835.635-2.765a9.827,9.827,0,0,0,.254-2.311c-.053-1-1.61-1-1.556,0Z" transform="translate(-354.243 -46.307)"/><path class="c" d="M416.411,118.847a12.864,12.864,0,0,0,.488,4.249,10.707,10.707,0,0,0,1.551,3.8.8.8,0,0,0,1.065.278.783.783,0,0,0,.278-1.064,9.428,9.428,0,0,1-1.393-3.428,11.42,11.42,0,0,1-.433-3.835.783.783,0,0,0-.777-.777.8.8,0,0,0-.778.777Z" transform="translate(-353.656 -46.328)"/><g transform="translate(54.592 75.933)"><path class="c" d="M417.457,123.63c.672.108,1.489.324,1.638,1.1a3.2,3.2,0,0,1-.9,2.456c-1.251,1.35-3.33,1.593-5.037,1.946a.789.789,0,0,0-.465,1.143,26.792,26.792,0,0,0,2.9,4.41c1.016,1.4,2.144,3.305,4.181,2.594a8.539,8.539,0,0,0,2.942-2.172,14.579,14.579,0,0,0,2.3-2.625,3.4,3.4,0,0,0,.448-3.161,6.779,6.779,0,0,0-1.268-1.69,54.893,54.893,0,0,0-3.914-4.016c-.74-.672-1.844.425-1.1,1.1,1,.912,1.941,1.909,2.874,2.892.532.561,1.064,1.127,1.56,1.721a1.575,1.575,0,0,1,.433,1.609,6.654,6.654,0,0,1-1.783,2.429,16.033,16.033,0,0,1-2.235,2.031c-.74.5-1.356.7-1.984-.035-.43-.5-.814-1.05-1.2-1.585a26.345,26.345,0,0,1-2.807-4.288l-.465,1.143c2.322-.48,5.05-.96,6.359-3.192A4.188,4.188,0,0,0,420.5,124a3.174,3.174,0,0,0-2.629-1.868c-.979-.157-1.4,1.342-.413,1.5Z" transform="translate(-408.38 -122.118)"/><path class="c" d="M412.835,129.248c-.644.932-1.259,1.884-1.854,2.847a21.441,21.441,0,0,0-2.424,4.725.8.8,0,0,0,.543.956,4.874,4.874,0,0,0,1.967.218,16.575,16.575,0,0,0,2.554-.33,16.3,16.3,0,0,0,2.276-.613,4.529,4.529,0,0,0,1.6-.837c.734-.684-.368-1.783-1.1-1.1-.094.088-.018.011.039-.023-.046.027-.087.06-.133.088a3.217,3.217,0,0,1-.312.167c-.056.027-.113.052-.17.078.128-.057-.013.005-.064.025-.139.054-.278.106-.419.153a16.676,16.676,0,0,1-2.13.562,13.012,13.012,0,0,1-2.141.275,7.963,7.963,0,0,1-.93-.013c-.064-.005-.206-.027-.063,0-.062-.009-.124-.02-.186-.033a2.472,2.472,0,0,1-.375-.112l.543.956c.053-.169.114-.334.177-.5.018-.046.036-.09.055-.135-.031.071-.027.063.009-.023l.1-.214c.179-.39.374-.773.577-1.151.438-.819.912-1.618,1.4-2.408.58-.936,1.179-1.863,1.806-2.769a.784.784,0,0,0-.279-1.064.793.793,0,0,0-1.064.278Z" transform="translate(-408.524 -121.881)"/></g><g transform="translate(39.363 75.932)"><path class="c" d="M401.61,122.129a3.2,3.2,0,0,0-2.591,1.775,4.124,4.124,0,0,0,.531,3.531c1.3,2.234,4.042,2.713,6.359,3.192l-.465-1.143a23.661,23.661,0,0,1-2.4,3.715c-.44.62-.884,1.239-1.353,1.837-.423.54-.821,1.03-1.569.736a8.115,8.115,0,0,1-2.448-1.96,11.587,11.587,0,0,1-1.914-2.2,1.708,1.708,0,0,1-.1-2.043c.314-.426.87-1.014,1.3-1.473,1.076-1.157,2.17-2.325,3.34-3.389.743-.674-.36-1.772-1.1-1.1-1.207,1.1-2.334,2.3-3.441,3.5-1.22,1.319-2.488,2.624-1.706,4.557a9.032,9.032,0,0,0,2.122,2.857,15.11,15.11,0,0,0,2.723,2.366,2.735,2.735,0,0,0,3.069.108,7.645,7.645,0,0,0,1.5-1.736q1.019-1.368,1.971-2.783a15.723,15.723,0,0,0,1.351-2.2.789.789,0,0,0-.465-1.143c-1.706-.353-3.785-.6-5.037-1.946a3.287,3.287,0,0,1-.915-2.391c.111-.814.96-1.049,1.652-1.16.986-.159.568-1.659-.413-1.5Z" transform="translate(-393.812 -122.118)"/><path class="c" d="M405.17,130.034c.627.906,1.226,1.833,1.806,2.769.489.79.964,1.589,1.4,2.408a11.386,11.386,0,0,1,.914,2.023l.543-.956a2.38,2.38,0,0,1-.346.106c-.061.013-.122.024-.183.034s-.042.007.042-.005l-.138.015a8.712,8.712,0,0,1-.93.013,12.983,12.983,0,0,1-2.141-.275,16.677,16.677,0,0,1-2.13-.562c-.141-.048-.281-.1-.419-.153-.018-.007-.229-.1-.064-.025-.057-.025-.114-.051-.17-.078-.1-.048-.2-.1-.291-.154-.047-.028-.09-.06-.136-.088s.151.131.022.01c-.732-.682-1.835.416-1.1,1.1a4.521,4.521,0,0,0,1.6.837,16.3,16.3,0,0,0,2.276.613,16.575,16.575,0,0,0,2.554.33,4.875,4.875,0,0,0,1.967-.218.793.793,0,0,0,.543-.956,21.487,21.487,0,0,0-2.424-4.725c-.6-.963-1.21-1.915-1.854-2.847a.8.8,0,0,0-1.064-.278.785.785,0,0,0-.279,1.064Z" transform="translate(-393.538 -121.881)"/></g><path class="c" d="M394.086,139.07a1.188,1.188,0,0,0-.24-.121v1.344c-.421.179.536.393.607.414q.578.172,1.159.329,1.161.315,2.337.571c1.554.339,3.124.6,4.7.79a50.518,50.518,0,0,0,9.849.228c5.159-.381,11.076-1.234,15.221-4.626.775-.635-.331-1.73-1.1-1.1-4.243,3.473-10.816,4.087-16.05,4.277a49.166,49.166,0,0,1-9.376-.538c-1.583-.247-3.154-.574-4.7-.978-.942-.244-2.5-1.109-3.431-.71a.781.781,0,0,0,0,1.344,1.161,1.161,0,0,1,.24.121.779.779,0,0,0,.786-1.344Z" transform="translate(-354.489 -45.673)"/><g transform="translate(21.652)"><path class="b" d="M386.065,89.826c-1.755-2.307-3.634-4.5-5.577-6.668-2.118-2.358-3.884-5.247-2.56-8.48a13.239,13.239,0,0,1,4.461-5.356c1.647-1.24,3.7-2.335,4.059-4.586.337-2.135-1.208-4.241-.851-6.373.317-1.891,2.039-3.224,3.779-4.031a15.644,15.644,0,0,1,7.677-1.4c2.539.185,5.178.978,7.56.08,1.785-.673,3.126-2.206,4.879-2.957,3.125-1.338,6.739.093,9.578,1.962s5.5,4.238,8.806,5.012c2.369.554,5,.268,7.082,1.535a8.117,8.117,0,0,1,3.163,4.461c.6,1.762.891,3.617,1.5,5.375.876,2.527,2.447,4.871,2.777,7.569.74,6.043-5.287,11.807-9.128,15.77a3.766,3.766,0,0,1-1.358,1.021,1.65,1.65,0,0,1-2.129-1.3,4.041,4.041,0,0,1,.032-2.057c.667-2.835,4.1-7.8.461-10.066-2.664-1.662-3.685,1.88-6.007,1.622-1.136-.125-1.794-1.392-1.887-2.531A24.709,24.709,0,0,0,422.3,75a3.818,3.818,0,0,0-6.08-2.168c-1.9,1.491-1.614,4.044-2.983,5.839a2.491,2.491,0,0,1-3.114.887,2.705,2.705,0,0,1-1.014-1.445c-.437-1.247-.455-2.645-1.114-3.791a3.4,3.4,0,0,0-5.518-.729c-1.527,1.541-2.2,3.865-2.927,5.852a3.475,3.475,0,0,1-.668,1.22c-.839.893-2.011.4-2.763-.325a10.482,10.482,0,0,0-1.738-1.673c-1.937-1.153-3.871.617-4.551,2.356a12.261,12.261,0,0,0-.218,7.067,31.935,31.935,0,0,1,.929,4c.236,2.765-1.655,1.655-2.806.006Q386.919,90.947,386.065,89.826Z" transform="translate(-376.675 -48.736)"/><path class="c" d="M389.877,94.6c-.993,0-2.049-.984-2.769-2.015q-.8-1.147-1.645-2.256h0c-1.533-2.016-3.293-4.121-5.537-6.62-1.921-2.139-4.291-5.429-2.7-9.306a13.917,13.917,0,0,1,4.716-5.687c.262-.2.534-.39.808-.586,1.386-.986,2.7-1.919,2.945-3.493a6.836,6.836,0,0,0-.407-2.835,7.986,7.986,0,0,1-.441-3.544c.312-1.859,1.813-3.5,4.226-4.618a16.373,16.373,0,0,1,8.066-1.473c.686.051,1.38.143,2.073.237a10.617,10.617,0,0,0,5.149-.109,10.477,10.477,0,0,0,2.373-1.426,13.1,13.1,0,0,1,2.474-1.518c3.627-1.554,7.615.246,10.324,2.028.676.444,1.342.916,2.007,1.389,2.142,1.521,4.163,2.957,6.543,3.513a19.812,19.812,0,0,0,2.454.359,11.29,11.29,0,0,1,4.861,1.271,8.751,8.751,0,0,1,3.5,4.882c.305.9.534,1.821.755,2.712.231.925.447,1.8.744,2.658s.683,1.706,1.089,2.593a17.581,17.581,0,0,1,1.726,5.139c.743,6.068-4.69,11.641-8.658,15.709l-.686.706a4.41,4.41,0,0,1-1.66,1.214,2.229,2.229,0,0,1-1.8-.094,2.8,2.8,0,0,1-1.352-1.73,4.757,4.757,0,0,1,.02-2.462,18.91,18.91,0,0,1,.866-2.477c1.255-3.144,1.985-5.467-.054-6.738-1.021-.636-1.57-.273-2.622.534a4.2,4.2,0,0,1-3.055,1.2c-1.609-.178-2.469-1.81-2.588-3.252a12.143,12.143,0,0,1,0-1.5,6.985,6.985,0,0,0-.069-1.806,3.028,3.028,0,0,0-4.823-1.717,5.3,5.3,0,0,0-1.565,2.866,8.7,8.7,0,0,1-1.277,2.829,3.25,3.25,0,0,1-4.162,1.077,3.425,3.425,0,0,1-1.338-1.852,12.457,12.457,0,0,1-.415-1.62,6.97,6.97,0,0,0-.639-2.038,2.7,2.7,0,0,0-1.987-1.41,2.737,2.737,0,0,0-2.285.844,12.681,12.681,0,0,0-2.464,4.773l-.285.794a4.188,4.188,0,0,1-.833,1.491,2.229,2.229,0,0,1-1.592.73,3.341,3.341,0,0,1-2.295-1.029c-.206-.2-.4-.411-.588-.625A4.713,4.713,0,0,0,394,79.378a1.623,1.623,0,0,0-1.423-.16,3.692,3.692,0,0,0-1.986,2.126,11.379,11.379,0,0,0-.183,6.612c.1.467.233.929.364,1.392a14.522,14.522,0,0,1,.579,2.712c.115,1.352-.217,2.179-.991,2.458A1.4,1.4,0,0,1,389.877,94.6Zm-3.157-5.226q.863,1.133,1.683,2.306a3.917,3.917,0,0,0,1.354,1.3,2.736,2.736,0,0,0,.02-.789,13.232,13.232,0,0,0-.527-2.417c-.14-.494-.28-.988-.387-1.486a12.892,12.892,0,0,1,.256-7.523,5.267,5.267,0,0,1,2.945-3.044,3.2,3.2,0,0,1,2.744.3,5.939,5.939,0,0,1,1.375,1.24c.166.185.331.372.508.542a2.006,2.006,0,0,0,1.159.585.646.646,0,0,0,.479-.233,2.724,2.724,0,0,0,.5-.949l.278-.779a14.042,14.042,0,0,1,2.831-5.358,4.188,4.188,0,0,1,6.763.891,8.191,8.191,0,0,1,.816,2.5,11.049,11.049,0,0,0,.36,1.421,1.928,1.928,0,0,0,.689,1.037c.609.386,1.578-.059,2.065-.7a7.4,7.4,0,0,0,1.025-2.34,6.759,6.759,0,0,1,2.1-3.641,4.608,4.608,0,0,1,7.338,2.615,8.3,8.3,0,0,1,.108,2.221,10.4,10.4,0,0,0-.005,1.306c.067.833.53,1.738,1.186,1.81a2.863,2.863,0,0,0,1.918-.884c1.024-.788,2.424-1.868,4.419-.624,3.319,2.068,1.8,5.881.686,8.664a17.842,17.842,0,0,0-.8,2.253,3.248,3.248,0,0,0-.042,1.652,1.248,1.248,0,0,0,.553.769.669.669,0,0,0,.552.016,3.108,3.108,0,0,0,1.059-.827l.689-.709c3.744-3.84,8.872-9.1,8.221-14.415a16.157,16.157,0,0,0-1.6-4.675c-.4-.882-.82-1.794-1.144-2.733s-.557-1.876-.785-2.794c-.224-.9-.434-1.748-.718-2.585a7.236,7.236,0,0,0-2.826-4.041,9.942,9.942,0,0,0-4.2-1.049,21.608,21.608,0,0,1-2.647-.392c-2.682-.627-4.927-2.221-7.1-3.764-.65-.462-1.3-.924-1.959-1.358-2.386-1.568-5.854-3.17-8.834-1.9a11.68,11.68,0,0,0-2.172,1.347,11.931,11.931,0,0,1-2.739,1.624,11.923,11.923,0,0,1-5.918.195c-.662-.088-1.324-.178-1.978-.226a14.817,14.817,0,0,0-7.287,1.33c-1.116.517-3.032,1.652-3.333,3.446a6.757,6.757,0,0,0,.4,2.855,8.079,8.079,0,0,1,.449,3.509c-.352,2.23-2.073,3.454-3.592,4.534-.262.186-.523.372-.772.56a12.383,12.383,0,0,0-4.2,5.025c-.966,2.357-.219,4.717,2.416,7.653,2.274,2.532,4.06,4.667,5.619,6.719Z" transform="translate(-376.702 -48.763)"/></g></g></g></svg>