<svg xmlns="http://www.w3.org/2000/svg" width="155.56" height="155.56" viewBox="0 0 155.56 155.56"><defs><style>.a{fill:#fff;stroke:#707070;}.b{fill:#042189;}.c{fill:#1594c4;}.d{stroke:none;}.e{fill:none;}</style></defs><g transform="translate(-338 -352)"><g class="a" transform="translate(338 352)"><circle class="d" cx="77.78" cy="77.78" r="77.78"/><circle class="e" cx="77.78" cy="77.78" r="77.28"/></g><g transform="translate(361 367)"><g transform="translate(63.368 27.657)"><path class="b" d="M259.221,119.7c-.008,1.563-.031,3.119-.111,4.666v.119a56.4,56.4,0,0,1-1.2-7.8c5.362-3.917,10.11-11.238,12.724-19.064a3.8,3.8,0,0,0,2.1.648c2.716,0,4.927-3.025,4.927-6.743,0-3.072-1.5-5.662-3.554-6.475a4.478,4.478,0,0,0,1.375-.5c1.278-.64.982-5.147,1-7.215.9.836,8.635,8.225,10.128,12.939a7.319,7.319,0,0,1-.309,5.756c-.86,1.493-1.666,1.421-1.153,3.143.4,1.327,1.911,3.214,2.59,4.572,2.693,5.378,5.647,13.55,1.911,19.3-.742,1.129-2.037,1.832-2.913,2.811-1.335,1.493-.948,1.374-.735,3.356a13.391,13.391,0,0,1-1.066,6.309,7.551,7.551,0,0,1-4.027,3.987,36.359,36.359,0,0,0-6.5-2.235l-8.512-2.061-.774-.142a3.7,3.7,0,0,1,1.571-2.29c1.225-.805,8.749-5.828,9.752-6.507a12.475,12.475,0,0,0-2.314-1.484,59.638,59.638,0,0,0-14.9-5.093Z" transform="translate(-257.117 -76.551)"/><path class="b" d="M280.93,140.329a.791.791,0,0,1-.328-.071,35.735,35.735,0,0,0-6.357-2.186L265,135.878a.788.788,0,0,1-.516-.34.8.8,0,0,1-.114-.608,4.484,4.484,0,0,1,1.906-2.777c1.057-.695,6.518-4.339,8.817-5.879a10.887,10.887,0,0,0-1.288-.744,62.2,62.2,0,0,0-13.78-4.847c-.011,1.162-.037,2.449-.1,3.751v.078a.789.789,0,0,1-1.558.181,56.749,56.749,0,0,1-1.22-7.9.791.791,0,0,1,.32-.716c5.061-3.7,9.829-10.852,12.44-18.675a.79.79,0,0,1,1.182-.411,3.015,3.015,0,0,0,1.668.519c2.281,0,4.137-2.671,4.137-5.954,0-2.668-1.257-5.028-3.055-5.74a.79.79,0,0,1,.135-1.508,3.665,3.665,0,0,0,1.13-.4c.685-.432.635-4.181.617-5.413-.005-.419-.009-.8-.007-1.127a.786.786,0,0,1,.475-.718.794.794,0,0,1,.852.146c.355.33,8.714,8.135,10.342,13.28a8.081,8.081,0,0,1-.376,6.389,7.607,7.607,0,0,1-.82,1.142c-.43.515-.5.594-.261,1.381a12.711,12.711,0,0,0,1.418,2.572,21.518,21.518,0,0,1,1.121,1.873c4.246,8.48,4.892,15.425,1.867,20.082a8.665,8.665,0,0,1-1.842,1.867,10.446,10.446,0,0,0-1.147,1.04c-.809.906-.809.906-.679,1.717.043.272.1.6.142,1.027a14.251,14.251,0,0,1-1.129,6.712,8.352,8.352,0,0,1-4.43,4.392A.794.794,0,0,1,280.93,140.329ZM266.206,134.5l8.413,2.036a37.46,37.46,0,0,1,6.306,2.133,6.67,6.67,0,0,0,3.309-3.435,12.578,12.578,0,0,0,1.005-5.911c-.041-.388-.091-.694-.131-.944-.2-1.279-.137-1.681,1.062-3.021a11.737,11.737,0,0,1,1.32-1.206,7.329,7.329,0,0,0,1.523-1.513c3.413-5.253.82-12.966-1.956-18.51-.252-.5-.633-1.1-1.037-1.727a13.49,13.49,0,0,1-1.6-2.969,2.539,2.539,0,0,1,.561-2.849,6.165,6.165,0,0,0,.662-.919,6.516,6.516,0,0,0,.239-5.126c-1.132-3.576-6.132-8.865-8.568-11.293.018,3.009-.143,5.32-1.4,6.01a8.315,8.315,0,0,1,2.56,6.295c0,4.154-2.565,7.534-5.717,7.534a4.452,4.452,0,0,1-1.652-.317c-2.73,7.7-7.285,14.457-12.341,18.308.067.668.137,1.3.211,1.907a.787.787,0,0,1,.271-.048h.008a.734.734,0,0,1,.126.01,59.9,59.9,0,0,1,15.12,5.162,13.286,13.286,0,0,1,2.464,1.581.791.791,0,0,1-.054,1.268c-.929.628-8.5,5.681-9.761,6.512A2.905,2.905,0,0,0,266.206,134.5Z" transform="translate(-257.144 -76.578)"/></g><g transform="translate(11.079 31.205)"><path class="b" d="M240.81,117.28c-.1.924-.213,1.848-.347,2.764l-.039-.008s-9.168.624-14.964,4.635c-.892.616-1.776,1.051-2.314,1.484,1,.679,8.528,5.7,9.752,6.507a3.7,3.7,0,0,1,1.571,2.29l-.774.142-8.512,2.061a36.8,36.8,0,0,0-6.877,2.409,7.613,7.613,0,0,1-4.453-4.161,13.4,13.4,0,0,1-1.058-6.309c.2-1.982.6-1.863-.735-3.356-.884-.979-2.179-1.682-2.914-2.811-3.742-5.748-.79-13.92,1.9-19.3.686-1.358,2.187-3.245,2.59-4.572.521-1.72-.292-1.65-1.153-3.143a7.314,7.314,0,0,1-.307-5.756c1.421-4.453,5.89-6.079,8.6-9.388.134,1.633.536,3.158,1.548,3.663a5.212,5.212,0,0,0,2.377.616c-1.919.908-3.3,3.411-3.3,6.357,0,3.719,2.211,6.743,4.927,6.743a3.794,3.794,0,0,0,1.935-.537c2.8,7.4,7.643,14.373,12.721,18.352C240.929,116.531,240.866,116.7,240.81,117.28Z" transform="translate(-206.604 -79.979)"/><path class="b" d="M218.332,140.38a.787.787,0,0,1-.284-.053,8.419,8.419,0,0,1-4.894-4.583,14.27,14.27,0,0,1-1.119-6.708c.045-.429.1-.764.141-1.039.128-.805.128-.805-.678-1.708a10.894,10.894,0,0,0-1.139-1.027,8.543,8.543,0,0,1-1.849-1.879c-3.031-4.655-2.389-11.6,1.859-20.083.288-.57.684-1.188,1.1-1.843a12.9,12.9,0,0,0,1.436-2.605c.236-.783.171-.862-.259-1.376a7.481,7.481,0,0,1-.823-1.143,8.076,8.076,0,0,1-.377-6.388c.969-3.037,3.208-4.828,5.373-6.56a21.735,21.735,0,0,0,3.368-3.093.79.79,0,0,1,1.4.436c.135,1.658.531,2.732,1.113,3.023a4.476,4.476,0,0,0,2.065.533.789.789,0,0,1,.3,1.5c-1.7.807-2.849,3.074-2.849,5.643,0,3.283,1.856,5.954,4.137,5.954a3,3,0,0,0,1.536-.429.789.789,0,0,1,1.137.4c2.739,7.226,7.516,14.128,12.47,18.01a.79.79,0,0,1,.3.7c-.029.3-.06.5-.092.7-.027.174-.055.349-.081.618l0,.012c-.1.933-.215,1.865-.351,2.791a.79.79,0,0,1-.85.672c-.919.076-9.226.851-14.484,4.49-.426.293-.849.547-1.237.779l-.1.061c2.328,1.559,7.712,5.151,8.76,5.841a4.482,4.482,0,0,1,1.909,2.778.79.79,0,0,1-.628.948l-.774.142-8.468,2.051a36.292,36.292,0,0,0-6.729,2.357A.784.784,0,0,1,218.332,140.38Zm1.936-57.851c-.784.754-1.628,1.431-2.456,2.092-2.073,1.657-4.032,3.224-4.855,5.8a6.515,6.515,0,0,0,.24,5.123,6.07,6.07,0,0,0,.666.918,2.528,2.528,0,0,1,.559,2.848,13.79,13.79,0,0,1-1.618,3c-.4.62-.773,1.2-1.024,1.7-2.775,5.542-5.367,13.256-1.945,18.511a7.267,7.267,0,0,0,1.529,1.521,11.97,11.97,0,0,1,1.308,1.191c1.2,1.338,1.266,1.737,1.065,3.01-.04.253-.09.561-.13.956a12.559,12.559,0,0,0,.995,5.91,6.733,6.733,0,0,0,3.711,3.619,37.89,37.89,0,0,1,6.71-2.315l8.414-2.037a2.9,2.9,0,0,0-.948-1.031c-1.264-.831-8.833-5.884-9.758-6.511a.791.791,0,0,1-.054-1.268,11.1,11.1,0,0,1,1.212-.8c.36-.216.755-.451,1.15-.725,5.109-3.536,12.586-4.506,14.758-4.72.094-.7.177-1.4.256-2.1.03-.307.061-.508.092-.708.01-.061.02-.121.03-.185-4.86-3.948-9.506-10.6-12.315-17.625a4.5,4.5,0,0,1-1.5.258c-3.152,0-5.716-3.38-5.716-7.534a8.618,8.618,0,0,1,2.162-5.905,4.534,4.534,0,0,1-.851-.386A3.613,3.613,0,0,1,220.268,82.53Zm20.568,34.777h0Z" transform="translate(-206.63 -80.006)"/></g><path class="c" d="M238.564,163.934c1.139-1.779,1.141-4.066,1.037-6.159a45.4,45.4,0,0,0-.891-7.136c1.983,2.664,7.643,1.617,10.624,1.624,3.518.009,6.91-1.092,10.357-1.539-1.611,3.879.682,9.489,1.663,13.191-6,.852-21.884.6-23.179-.111" transform="translate(-194.443 -46.319)"/><path class="b" d="M278.24,92.286c-.064,2.948-2.227,7.536-5.857,5.424a.788.788,0,0,0-1.143.465c-2.722,8-8.056,16.755-16.088,20.333a11.467,11.467,0,0,1-9.422.2,26.3,26.3,0,0,1-8.95-6.882,43.966,43.966,0,0,1-8.219-13.544.793.793,0,0,0-1.143-.466c-5.763,3.008-8.3-10.213-1.9-11.488a.784.784,0,0,0,.57-.75c.056-10.313,2.978-21.955,13.348-26.4a24.207,24.207,0,0,1,13.769-1.505,23.294,23.294,0,0,1,13.464,8.373,31.708,31.708,0,0,1,6.63,19.494.79.79,0,0,0,.777.778c2.927,0,4.105,3.594,4.157,5.965a.779.779,0,0,0,1.557,0c-.071-3.257-1.875-7.521-5.714-7.521l.778.777c-.209-12.224-6.761-25.1-19.114-28.84-9.441-2.859-20.6.478-26.159,8.766-3.932,5.865-5.013,13.194-5.05,20.114l.571-.749c-8.452,1.682-4.971,18.541,3.1,14.331l-1.144-.465c3.18,8.26,9,17.069,17.21,21.046a12.887,12.887,0,0,0,10.025.759,24.352,24.352,0,0,0,10.108-7.225,43.048,43.048,0,0,0,8.337-14.691l-1.144.466a4.733,4.733,0,0,0,5.767-.6,8.509,8.509,0,0,0,2.433-6.167A.779.779,0,0,0,278.24,92.286Z" transform="translate(-195.074 -49.655)"/><path class="b" d="M247.547,87.815c0,.792-.048,1.582-.082,2.373-.024.564.017,1.139-.032,1.7-.081.938-1.221,1.441-1.878,1.99a2.094,2.094,0,0,0-.635,2.945,7.068,7.068,0,0,0,2.719,2.265c.889.458,1.677-.885.786-1.344a5.137,5.137,0,0,1-2.266-1.876c-.176-.346.053-.495.33-.747.4-.365.865-.656,1.288-1a3.036,3.036,0,0,0,1.218-2.4c.04-1.3.1-2.606.107-3.908a.778.778,0,0,0-1.556,0Z" transform="translate(-194.219 -48.553)"/><path class="b" d="M237.527,83.132c-.041,2.045.189,4.084.195,6.127a1.2,1.2,0,1,0,2.406,0c0-2.043-.236-4.082-.195-6.127a1.214,1.214,0,0,0-1.2-1.2,1.226,1.226,0,0,0-1.2,1.2Z" transform="translate(-194.466 -48.733)"/><path class="b" d="M256.6,83.132c-.041,2.045.19,4.084.195,6.127a1.2,1.2,0,1,0,2.407,0c-.005-2.043-.236-4.082-.195-6.127a1.215,1.215,0,0,0-1.2-1.2,1.227,1.227,0,0,0-1.2,1.2Z" transform="translate(-193.796 -48.733)"/><path class="b" d="M239.078,114.793a36.359,36.359,0,0,1-2.032,12.821c-.718,2.244-1.562,4.425-2.411,6.622a14.266,14.266,0,0,0-1.195,5.536,13.592,13.592,0,0,0,1.7,5.553,62.367,62.367,0,0,1,2.87,6.51c1.463,4.126,2.236,8.85.622,13.047-.36.936,1.144,1.34,1.5.414,1.5-3.908,1.057-8.357-.106-12.3a44.663,44.663,0,0,0-2.515-6.33c-.983-2.09-2.3-4.164-2.489-6.515a13.346,13.346,0,0,1,1.291-5.945c.867-2.188,1.671-4.387,2.38-6.632a36.7,36.7,0,0,0,1.945-12.786c-.039-1-1.6-1-1.556,0Z" transform="translate(-194.609 -47.605)"/><path class="b" d="M258.358,122.8c-.094,3.508,1.784,6.353,2.613,9.651.991,3.941,1.8,8.566.407,12.5-1.14,3.2-3.158,6-3.144,9.522.014,3.493,1.228,6.859,1.28,10.345a.778.778,0,0,0,1.556,0c-.052-3.427-1.22-6.734-1.278-10.16-.064-3.7,2.34-6.634,3.336-10.065,1.07-3.686.357-7.76-.411-11.435-.735-3.51-2.9-6.692-2.8-10.353a.778.778,0,0,0-1.556,0Z" transform="translate(-193.738 -47.324)"/><g transform="translate(71.415 85.543)"><path class="b" d="M303.78,162.881c-3.153-7.319-7.311-14.4-13.284-19.785a39.438,39.438,0,0,0-17.572-8.864l-7.036-1.708c-.973-.236-1.388,1.264-.414,1.5,4.351,1.055,8.875,1.877,13.064,3.478a38.133,38.133,0,0,1,17.425,14.224,68.058,68.058,0,0,1,6.473,11.939c.394.917,1.736.125,1.344-.786Z" transform="translate(-264.919 -132.5)"/></g><path class="b" d="M237.762,150.081c1.495,2.645,6,2.787,8.649,2.925,4.65.242,10.415.213,14.359-2.647.8-.582.028-1.933-.785-1.343-3.647,2.644-8.916,2.637-13.219,2.45a26.386,26.386,0,0,1-4.043-.443c-1.195-.24-2.96-.565-3.618-1.729a.779.779,0,0,0-1.344.786Z" transform="translate(-194.461 -46.381)"/><path class="b" d="M247.148,104.6c3.04.4,6.534.114,8.718-2.3.671-.741-.426-1.845-1.1-1.1-1.912,2.113-4.985,2.186-7.618,1.845a.783.783,0,0,0-.778.778.8.8,0,0,0,.778.777Z" transform="translate(-194.155 -48.065)"/><path class="c" d="M263.1,93.441c-1.476-.363-6.473-.759-6.8,1.265-.414,2.56,7.04,2.239,8.512,1.184C267.145,94.22,263.1,93.441,263.1,93.441Z" transform="translate(-193.807 -48.339)"/><path class="c" d="M238.374,93.441c-1.476-.363-6.474-.759-6.8,1.265-.415,2.56,7.039,2.239,8.512,1.184C242.417,94.22,238.374,93.441,238.374,93.441Z" transform="translate(-194.675 -48.339)"/><path class="b" d="M266.362,166.645a.812.812,0,0,1-.086-.005.79.79,0,0,1-.7-.871c.975-8.964,3.824-15.846,8.7-21l-8.367-6.838a4.486,4.486,0,0,1,.36-7.213c1.03-.681,6.5-4.33,8.817-5.884a11.177,11.177,0,0,0-1.289-.743,59.162,59.162,0,0,0-14.681-5.024.79.79,0,1,1,.253-1.559,59.706,59.706,0,0,1,15.12,5.163,13.274,13.274,0,0,1,2.466,1.578.79.79,0,0,1-.053,1.268c-1.006.68-8.534,5.706-9.761,6.517a2.906,2.906,0,0,0-.233,4.673l9.035,7.385a.791.791,0,0,1,.058,1.172c-4.983,4.954-7.877,11.718-8.852,20.677A.791.791,0,0,1,266.362,166.645Z" transform="translate(-193.731 -47.483)"/><g transform="translate(0 85.543)"><path class="b" d="M197.342,163.667c3.1-7.21,7.16-14.166,13.041-19.47,4.95-4.467,10.776-6.981,17.186-8.537l6.735-1.634c.973-.237.561-1.737-.414-1.5-4.576,1.111-9.353,1.965-13.73,3.741A39.916,39.916,0,0,0,202.782,150.5,67.231,67.231,0,0,0,196,162.881c-.392.911.948,1.7,1.344.786Z" transform="translate(-195.927 -132.5)"/></g><path class="b" d="M232.731,166.63a.791.791,0,0,1-.785-.7c-.974-8.96-3.869-15.724-8.852-20.677a.792.792,0,0,1,.058-1.172l9.035-7.385a2.906,2.906,0,0,0-.233-4.673c-1.227-.812-8.755-5.837-9.761-6.517a.79.79,0,0,1-.053-1.268,10.714,10.714,0,0,1,1.2-.785c.364-.217.764-.455,1.163-.732,5.909-4.092,14.976-4.751,15.36-4.777a.79.79,0,0,1,.107,1.575c-.089.006-9.022.658-14.567,4.5-.431.3-.861.556-1.255.79l-.084.051c2.35,1.573,7.742,5.17,8.762,5.846a4.486,4.486,0,0,1,.36,7.213l-8.367,6.838c4.874,5.154,7.723,12.036,8.7,21a.8.8,0,0,1-.787.876Z" transform="translate(-195.017 -47.468)"/><g transform="translate(24.396)"><path class="b" d="M278.346,77.51a26.272,26.272,0,0,0-1.1-7.139,49.476,49.476,0,0,0-3.018-6.9,21.4,21.4,0,0,0-7.527-8.043c-9.152-6.287-25.494-6.493-34.7,0a21.947,21.947,0,0,0-7.527,8.043,49.358,49.358,0,0,0-3.018,6.9,26.273,26.273,0,0,0-1.1,7.139c-.1,1.906-.5,6.967,1.511,7.978,2.606,1.536,7.737-.1,10.536-1.092,3.176-1.128,6.074-3.954,5.965-7.548,2.807-.023,5.227.268,7.411-1.938a10.218,10.218,0,0,0,2.035-3.645c.588-1.814-.116-2.176,1.535-2.922,1.651.746.947,1.109,1.535,2.922a10.218,10.218,0,0,0,2.035,3.645c2.183,2.206,4.6,1.915,7.411,1.938-.109,3.594,2.79,6.42,5.964,7.548,2.8.994,7.93,2.628,10.537,1.092C278.85,84.478,278.442,79.416,278.346,77.51Z" transform="translate(-219.468 -49.833)"/><path class="b" d="M274.036,86.945a25.892,25.892,0,0,1-7.974-1.778c-3.1-1.1-6.171-3.808-6.471-7.5-.227,0-.463,0-.692,0-2.308,0-4.494-.137-6.51-2.174a10.971,10.971,0,0,1-2.224-3.957,7.593,7.593,0,0,1-.322-1.516c-.062-.487-.073-.584-.463-.777-.389.194-.4.291-.463.778a7.5,7.5,0,0,1-.321,1.515,10.952,10.952,0,0,1-2.226,3.957c-2.171,2.193-4.535,2.179-7.044,2.172h-.157c-.3,3.694-3.374,6.4-6.471,7.5-3.468,1.232-8.4,2.68-11.2,1.029-2.31-1.157-2.055-5.824-1.918-8.33l.02-.367a26.639,26.639,0,0,1,1.144-7.362,49.825,49.825,0,0,1,3.068-7.007,22.774,22.774,0,0,1,7.768-8.315c9.357-6.6,25.991-6.605,35.6-.006a22.065,22.065,0,0,1,7.777,8.321,49.83,49.83,0,0,1,3.068,7.007,26.721,26.721,0,0,1,1.142,7.362l.021.37c.137,2.506.392,7.17-1.966,8.353A6.229,6.229,0,0,1,274.036,86.945ZM259.981,76.084h.386a.79.79,0,0,1,.784.814c-.1,3.313,2.66,5.793,5.44,6.78,4.9,1.739,8.22,2.129,9.871,1.155,1.479-.743,1.226-5.363,1.143-6.881l-.02-.376h0a25.392,25.392,0,0,0-1.056-6.917,48.263,48.263,0,0,0-2.969-6.785,20.665,20.665,0,0,0-7.279-7.765c-8.963-6.158-25.069-6.16-33.794-.006a21.113,21.113,0,0,0-7.285,7.771,48.264,48.264,0,0,0-2.97,6.785,25.346,25.346,0,0,0-1.056,6.917l-.021.375c-.083,1.519-.335,6.139,1.1,6.858,1.7,1,5.019.609,9.919-1.13,2.778-.988,5.539-3.467,5.44-6.78a.79.79,0,0,1,.783-.814c.317,0,.632,0,.941,0,2.358.017,4.21.02,5.915-1.7a9.554,9.554,0,0,0,1.846-3.332,6.026,6.026,0,0,0,.256-1.226c.116-.924.289-1.532,1.7-2.173a.785.785,0,0,1,.651,0c1.416.641,1.588,1.247,1.7,2.173a6.055,6.055,0,0,0,.257,1.226,9.543,9.543,0,0,0,1.845,3.332c1.7,1.723,3.571,1.718,5.915,1.7Z" transform="translate(-219.495 -49.86)"/></g></g></g></svg>