<svg xmlns="http://www.w3.org/2000/svg" width="155.56" height="155.56" viewBox="0 0 155.56 155.56"><defs><style>.a{fill:#fff;stroke:#707070;}.b{fill:#042189;}.c{fill:#1594c4;}.d{stroke:none;}.e{fill:none;}</style></defs><g transform="translate(-856 -163)"><g class="a" transform="translate(856 163)"><circle class="d" cx="77.78" cy="77.78" r="77.78"/><circle class="e" cx="77.78" cy="77.78" r="77.28"/></g><g transform="translate(879.125 173.445)"><path class="b" d="M438.5,238.925c-.069,3.143-2.494,7.762-6.174,5.211a.784.784,0,0,0-1.143.465c-2.235,8.151-6.918,17.223-15.214,20.555-7.821,3.142-16.3-.344-21.255-6.748a35.868,35.868,0,0,1-6.1-13.372.79.79,0,0,0-1.143-.465c-3.4,1.516-5.421-2.692-5.482-5.441-.058-2.642,1.293-6.248,4.438-6.162a.787.787,0,0,0,.777-.778c0-10,2.852-21.932,12.853-26.4a23.367,23.367,0,0,1,13.579-1.485,21.9,21.9,0,0,1,13.086,8.4c4.255,5.582,6.072,12.62,6.113,19.561a.791.791,0,0,0,.985.75c3.207-.534,4.621,3.4,4.677,5.914a.778.778,0,0,0,1.556,0c-.081-3.675-2.348-8.131-6.647-7.415l.984.75c-.071-12.024-5.947-25.169-18.246-28.935-9.287-2.845-20.154.384-25.5,8.648-3.792,5.865-5,13.346-5,20.216l.778-.777c-4.344-.119-6.334,4.834-5.941,8.525.415,3.886,3.56,7.853,7.771,5.977l-1.144-.466c2.115,8.487,6.743,17.354,15.209,20.909a18.988,18.988,0,0,0,12.69.779,21.85,21.85,0,0,0,10.284-7.211,39.8,39.8,0,0,0,7.387-14.911l-1.143.465a4.713,4.713,0,0,0,5.962-.285,8.44,8.44,0,0,0,2.552-6.27A.778.778,0,0,0,438.5,238.925Z" transform="translate(-355.371 -193.812)"/><path class="b" d="M407.8,234.453c0,.792-.048,1.582-.082,2.373-.024.563.017,1.139-.032,1.7-.082.938-1.221,1.441-1.878,1.991a2.094,2.094,0,0,0-.636,2.945,7.075,7.075,0,0,0,2.72,2.264c.889.458,1.677-.884.786-1.344a5.142,5.142,0,0,1-2.266-1.875c-.176-.347.053-.5.33-.747.4-.366.865-.656,1.288-1a3.036,3.036,0,0,0,1.218-2.4c.04-1.3.1-2.607.107-3.908a.778.778,0,0,0-1.556,0Z" transform="translate(-354.514 -192.71)"/><path class="b" d="M397.781,229.77c-.041,2.045.189,4.083.195,6.127a1.2,1.2,0,1,0,2.406,0c0-2.044-.236-4.082-.195-6.127a1.2,1.2,0,1,0-2.406,0Z" transform="translate(-354.761 -192.89)"/><path class="b" d="M416.849,229.77c-.041,2.045.19,4.083.195,6.127a1.2,1.2,0,0,0,2.407,0c-.005-2.044-.236-4.082-.195-6.127a1.2,1.2,0,0,0-2.407,0Z" transform="translate(-354.091 -192.89)"/><path class="b" d="M406.571,253.353c3.04.4,6.534.114,8.718-2.3.671-.741-.426-1.846-1.1-1.1-1.912,2.113-4.985,2.186-7.618,1.845a.782.782,0,0,0-.778.777.8.8,0,0,0,.778.778Z" transform="translate(-354.48 -192.147)"/><path class="c" d="M423.355,240.078c-1.476-.363-6.473-.758-6.8,1.265-.414,2.56,7.04,2.239,8.512,1.185C427.4,240.858,423.355,240.078,423.355,240.078Z" transform="translate(-354.102 -192.496)"/><path class="c" d="M398.628,240.078c-1.476-.363-6.474-.758-6.8,1.265-.415,2.56,7.039,2.239,8.512,1.185C402.671,240.858,398.628,240.078,398.628,240.078Z" transform="translate(-354.971 -192.496)"/><path class="b" d="M401.108,263.489a7.3,7.3,0,0,1-.223,2.03c-.178.916-.4,1.823-.633,2.724-.294,1.127-.61,2.25-.955,3.362-.3.959,1.2,1.368,1.5.414.356-1.142.679-2.3.979-3.453.238-.915.46-1.835.636-2.765a9.947,9.947,0,0,0,.254-2.312c-.054-1-1.611-1-1.557,0Z" transform="translate(-354.709 -191.689)"/><path class="b" d="M415.984,262.946a12.827,12.827,0,0,0,.488,4.248,10.662,10.662,0,0,0,1.551,3.8.8.8,0,0,0,1.064.279.783.783,0,0,0,.279-1.064,9.447,9.447,0,0,1-1.394-3.428,11.423,11.423,0,0,1-.432-3.835.784.784,0,0,0-.778-.778.794.794,0,0,0-.777.778Z" transform="translate(-354.123 -191.709)"/><g transform="translate(57.924 74.647)"><path class="b" d="M417.029,267.728c.816.145,1.625.411,1.66,1.367a3.408,3.408,0,0,1-1.262,2.5c-1.288,1.074-3.108,1.306-4.7,1.633a.789.789,0,0,0-.466,1.143c1.276,2.841,2.862,5.576,4.321,8.328a96.124,96.124,0,0,0,4.968,9.045c.535.79,1.4,1,1.986.116a9.7,9.7,0,0,0,.964-3.719,69.915,69.915,0,0,0,.839-11.753c-.024-1.3.019-2.7-.815-3.767a41.106,41.106,0,0,0-4.676-4.911c-.737-.675-1.84.422-1.1,1.1a56.135,56.135,0,0,1,3.919,4.021,3.193,3.193,0,0,1,1.083,2.584,62.137,62.137,0,0,1-.516,10.543,27.617,27.617,0,0,1-.746,4.33,4.348,4.348,0,0,1-.291.776c-.017-.02.831-.174.789.032.016-.076-.269-.419-.312-.49-1.7-2.775-3.165-5.707-4.688-8.578-1.479-2.789-3.088-5.562-4.382-8.444l-.465,1.143c2.463-.506,5.3-1.044,6.531-3.524,1.124-2.267.385-4.511-2.231-4.975-.979-.174-1.4,1.326-.414,1.5Z" transform="translate(-412.179 -266.214)"/></g><g transform="translate(47.24 81.12)"><path class="c" d="M402.193,287.736c.064,1.378,2.963.931,5.027,1.026,2.654.122,5.279.2,7.913.068.325-.017,1.388-.234,1.621-.076.265.18.042.935-.011,1.27a23.787,23.787,0,0,0-.437,3.871c.009,3.276,0,6.542,0,9.82a25.438,25.438,0,0,0,.241,4.491,13.671,13.671,0,0,0,.48,3.009,6.475,6.475,0,0,0-2.87-.423c-1.544-.012-3.077-.207-4.622-.222-1.856-.019-3.733.087-5.588,0-1.187-.053-2.376-.078-2.028-.078Z" transform="translate(-401.858 -271.931)"/><path class="b" d="M463.59,310.514a83.034,83.034,0,0,0-5.883-14.185,40.2,40.2,0,0,0-6.42-9.359c-3.351-3.465-8.009-5.566-12.267-7.673-4.844-2.4-9.722-4.7-14.716-6.768-.924-.383-1.327,1.122-.414,1.5,4.223,1.753,8.363,3.672,12.466,5.686,2.52,1.236,5.042,2.472,7.49,3.846a28.381,28.381,0,0,1,5.543,3.725c5.2,4.826,8.354,11.974,10.874,18.482.658,1.7,1.292,3.416,1.826,5.159.293.954,1.8.548,1.5-.414Z" transform="translate(-401.102 -272.467)"/><path class="b" d="M417.364,311.731c.166-5.255-.045-10.509-.154-15.763-.053-2.546-.08-5.094-.022-7.639.05-2.193.345-4.322.552-6.5.094-1-1.462-.991-1.556,0-.208,2.179-.5,4.305-.552,6.5-.058,2.545-.031,5.093.022,7.639.11,5.254.32,10.508.154,15.763-.031,1,1.525,1,1.556,0Z" transform="translate(-401.375 -272.164)"/></g><g transform="translate(38.645 74.647)"><path class="b" d="M401.489,266.228c-2.615.464-3.357,2.706-2.231,4.975,1.23,2.478,4.067,3.018,6.53,3.524l-.465-1.143c-1.1,2.449-2.461,4.808-3.713,7.181-1.645,3.117-3.272,6.252-5.039,9.3-.145.251-.565.7-.594.979-.017.157-.075,0-.03.043-.141-.123,1.175-.25.557-.153.367-.058.17.324.121-.077-.153-1.242-.614-2.5-.788-3.765a69.659,69.659,0,0,1-.693-10.708c.024-1.274-.011-2.244.728-3.114a49.672,49.672,0,0,1,4.307-4.464c.74-.677-.362-1.775-1.1-1.1a51.865,51.865,0,0,0-4.234,4.379,4.6,4.6,0,0,0-1.214,3.166,60.817,60.817,0,0,0,.6,11.5c.1.773.732,7.385,2.848,5.389a11.086,11.086,0,0,0,1.616-2.68c.969-1.744,1.912-3.5,2.851-5.266,1.729-3.243,3.611-6.472,5.117-9.827a.789.789,0,0,0-.465-1.143c-1.59-.327-3.411-.559-4.7-1.633a3.41,3.41,0,0,1-1.262-2.5c.035-.956.845-1.222,1.66-1.367.984-.174.567-1.674-.413-1.5Z" transform="translate(-393.555 -266.214)"/></g><g transform="translate(0 81.119)"><path class="b" d="M357.76,310.928a81.249,81.249,0,0,1,5.509-13.4,39.857,39.857,0,0,1,6.295-9.357c3.264-3.42,7.875-5.466,12.051-7.533,4.723-2.338,9.476-4.59,14.345-6.61.912-.379.512-1.885-.414-1.5-4.276,1.774-8.475,3.7-12.63,5.741-4.558,2.238-9.668,4.357-13.455,7.823-5.358,4.9-8.59,12.169-11.2,18.81-.726,1.847-1.421,3.714-2,5.611-.294.96,1.207,1.37,1.5.414Z" transform="translate(-356.221 -272.467)"/><path class="b" d="M402.748,311.731c-.166-5.255.046-10.509.154-15.763.053-2.546.081-5.094.023-7.639-.051-2.194-.345-4.321-.552-6.5-.094-.989-1.651-1-1.557,0,.207,2.178.5,4.306.552,6.5.058,2.545.031,5.093-.022,7.639-.11,5.254-.32,10.508-.154,15.763.031,1,1.588,1,1.556,0Z" transform="translate(-354.655 -272.164)"/><g transform="translate(47.007 14.941)"><path class="b" d="M416.519,287a13.862,13.862,0,0,1-5.909,1.317,35.837,35.837,0,0,1-8-.832c-.978-.19-1.4,1.309-.413,1.5a36.718,36.718,0,0,0,8.613.881,15.517,15.517,0,0,0,6.5-1.522c.885-.47.1-1.814-.785-1.344Z" transform="translate(-401.632 -286.901)"/></g></g><g transform="translate(33.499 50.993)"><path class="b" d="M431.042,244.117a46.887,46.887,0,0,1-7.09,8.482,9.268,9.268,0,0,0-.6-2.362,14.981,14.981,0,0,0-1.2,1.464,14.7,14.7,0,0,1-1.43,1.278c-.594.469-1.2.9-1.8,1.36s-1.173,1.379-1.921,1.559a2.316,2.316,0,0,0,.65-1.345,17.155,17.155,0,0,1-7.23,3.017,8.363,8.363,0,0,1-7.375-2.926c.345.431.588.971.931,1.411a9.117,9.117,0,0,1,1.482,1.924c-1.572-.564-3.048-1.939-4.46-2.828a37.263,37.263,0,0,1-5.865-4.28c-.124.993.494,1.793.717,2.683-2.025-1.1-6.509-6.225-6.509-6.225a23.735,23.735,0,0,0,1.8,8.723,31.071,31.071,0,0,0,5.873,7.9,10.946,10.946,0,0,0,2.4,1.822,5.871,5.871,0,0,1-.386-1.654,11.122,11.122,0,0,0,2.693,2.331,14.71,14.71,0,0,0,3.367,2.06,8.894,8.894,0,0,1-.358-1.325c.858.388,1.6.987,2.451,1.385.808.377,1.928,1.365,2.8,1.335a11.122,11.122,0,0,0,2.822-1.092,12.063,12.063,0,0,0,3.089-2.086c-.2.365-.859,1.024-.736,1.4a11.427,11.427,0,0,0,4.27-2.919c.676-.674,1.421-1.246,2.114-1.894a17.319,17.319,0,0,1,1.619-1.7c-.078.14-.122.316-.188.444a19.81,19.81,0,0,0,5.1-5.635C429.069,254.405,431.048,251.773,431.042,244.117Z" transform="translate(-388.556 -243.337)"/><path class="b" d="M430.387,243.745a39.367,39.367,0,0,1-6.965,8.322l1.348.558a7.294,7.294,0,0,0-.623-2.572.8.8,0,0,0-1.32-.348,12.7,12.7,0,0,0-1.029,1.242,11.391,11.391,0,0,1-1.885,1.712c-.5.386-1.033.74-1.517,1.148-.509.427-.934,1.111-1.572,1.355l.768,1.32a3.371,3.371,0,0,0,.882-1.9.794.794,0,0,0-1.188-.682,15.409,15.409,0,0,1-7.244,2.95,7.929,7.929,0,0,1-6.405-2.735c-.6-.632-1.77.213-1.24.957.4.558.723,1.163,1.159,1.695a8.188,8.188,0,0,1,1.254,1.64l.892-1.16c-1.768-.7-3.244-2.093-4.839-3.107a34.354,34.354,0,0,1-5.137-3.8.8.8,0,0,0-1.349.558,8.8,8.8,0,0,0,.745,2.893l1.16-.892c-2.463-1.415-4.494-3.985-6.349-6.1a.8.8,0,0,0-1.349.559,21.186,21.186,0,0,0,2.6,10.428,33.843,33.843,0,0,0,3.84,5.247,13.329,13.329,0,0,0,4.03,3.451c.565.257,1.41-.178,1.159-.891a5.91,5.91,0,0,1-.358-1.445l-1.348.558a13.67,13.67,0,0,0,3.021,2.57,16.458,16.458,0,0,0,3.389,2.024c.582.23,1.113-.439.971-.971a11.787,11.787,0,0,1-.357-1.324l-1.16.891c1.139.561,2.263,1.239,3.342,1.9a3.97,3.97,0,0,0,2.691.875,11.1,11.1,0,0,0,2.833-1.151,14.191,14.191,0,0,0,3.248-2.21l-1.24-.956a3.25,3.25,0,0,0-.844,1.8.8.8,0,0,0,1,.762,11.407,11.407,0,0,0,4.214-2.732c.712-.671,1.448-1.307,2.169-1.967.7-.637,1.237-1.421,1.97-2.016l-1.24-.956c-.092.21-.181.42-.269.632-.258.621.626,1.282,1.16.891a20.541,20.541,0,0,0,6.308-7.7,24.683,24.683,0,0,0,2.146-10.924.79.79,0,0,0-1.58,0c-.032,6.676-2.062,13.171-7.671,17.264l1.159.892.11-.256a.793.793,0,0,0-1.24-.956,23.45,23.45,0,0,0-1.619,1.7c-.616.609-1.315,1.133-1.943,1.729a11.249,11.249,0,0,1-4.093,2.882l1,.761c0-.316.463-.75.629-1,.516-.789-.594-1.515-1.24-.957A12.427,12.427,0,0,1,412.8,268a9.348,9.348,0,0,1-2.594,1.1c-.876.107-1.712-.713-2.448-1.112-.872-.472-1.7-1.021-2.592-1.457a.8.8,0,0,0-1.159.891,11.8,11.8,0,0,0,.357,1.324l.972-.971a14.93,14.93,0,0,1-3.012-1.864,12.191,12.191,0,0,1-2.7-2.324.8.8,0,0,0-1.348.559,7.488,7.488,0,0,0,.414,1.864l1.16-.891a12.149,12.149,0,0,1-3.613-3.094,31.7,31.7,0,0,1-3.691-5.038,19.57,19.57,0,0,1-2.385-9.631l-1.348.558c1.949,2.225,4.077,4.86,6.668,6.35a.8.8,0,0,0,1.159-.892,7.683,7.683,0,0,1-.688-2.473l-1.348.558a36.591,36.591,0,0,0,5.457,4.045c1.734,1.1,3.292,2.5,5.216,3.266.706.282,1.152-.61.892-1.159a6.154,6.154,0,0,0-1.034-1.431,21.411,21.411,0,0,1-1.379-1.9l-1.24.958a9.53,9.53,0,0,0,7.116,3.218,16.279,16.279,0,0,0,8.447-3.187l-1.188-.681a1.779,1.779,0,0,1-.419.786c-.45.538-.041,1.629.768,1.32,1.292-.494,2.278-1.756,3.369-2.585a19.063,19.063,0,0,0,1.786-1.477c.573-.557.97-1.257,1.545-1.8l-1.32-.348a6.277,6.277,0,0,1,.567,2.152.8.8,0,0,0,1.348.559,40.859,40.859,0,0,0,7.214-8.642A.791.791,0,0,0,430.387,243.745Z" transform="translate(-388.583 -243.364)"/></g><g transform="translate(41.744 51.865)"><path class="b" d="M397.4,253.563a16.754,16.754,0,0,1,1.749-3.006c.474-.721,1.69-2.736,2.453-2.818,1.068-.114.689,1.265,1.878.384.876-.649,1.725-1.388,2.593-2.056.3-.233.589-.689.981-.667.455.027.493.6.866.742.934.344,1.3-1.335,2.1-1.52s.961,1.321,1.711,1.408c.616.071,1.11-1.072,1.836-.893a10.915,10.915,0,0,1,2.379,1.589,13.461,13.461,0,0,1,2.219,1.614,2.713,2.713,0,0,0,.031-1.036c1.211.051,2.651,1.466,3.767,2.045.985.512,2.34.858,3.021,1.945-4.174,2.005-7.444-1.8-11.334-2.632-4.055-.867-7.717,1.131-11.4,3.339-1.176.7-2.328,1.548-3.489,2.292-.553.353-.942.772-1.451.207a1.674,1.674,0,0,1-.107-1.916" transform="translate(-396.534 -244.191)"/><path class="b" d="M397.815,255.207a1.07,1.07,0,0,1-.8-.414,2.088,2.088,0,0,1-.149-2.417.413.413,0,0,1,.572-.127.418.418,0,0,1,.1.092c.308-.548.674-1.094,1.011-1.6l.425-.647c.865-1.346,1.778-2.665,2.594-2.752a1.23,1.23,0,0,1,1.191.549,1.033,1.033,0,0,0,.119.134,1.835,1.835,0,0,0,.363-.219c.485-.36.963-.748,1.441-1.136.381-.31.762-.62,1.147-.915a2.423,2.423,0,0,0,.224-.208,1.422,1.422,0,0,1,1.034-.544,1.049,1.049,0,0,1,.822.567c.053.079.123.185.164.2.206.077.374-.083.758-.6a2.124,2.124,0,0,1,1.11-.939c.731-.167,1.119.455,1.377.866.152.242.325.518.475.534.108.026.326-.185.492-.33a1.557,1.557,0,0,1,1.4-.553,5.016,5.016,0,0,1,1.741,1.068,8.875,8.875,0,0,0,.76.571c.56.354,1.13.713,1.645,1.113-.005-.027-.01-.054-.018-.081a.417.417,0,0,1,.08-.364.439.439,0,0,1,.34-.153A5.87,5.87,0,0,1,421,248.242a11.512,11.512,0,0,0,1.166.755c.23.119.48.229.736.342a5.026,5.026,0,0,1,2.446,1.75.416.416,0,0,1-.172.594c-2.922,1.4-5.425.142-7.845-1.079a16.078,16.078,0,0,0-3.757-1.522c-3.823-.822-7.29,1.005-11.1,3.289-.693.415-1.377.879-2.059,1.341-.473.322-.946.641-1.42.944l-.215.145A1.794,1.794,0,0,1,397.815,255.207Zm-.345-1.22a.883.883,0,0,0,.156.251c.172.193.195.214.683-.12l.237-.159c.468-.3.934-.616,1.4-.933.682-.462,1.388-.941,2.1-1.365,3.969-2.376,7.584-4.271,11.7-3.389a16.8,16.8,0,0,1,3.957,1.592c2.194,1.109,4.276,2.159,6.629,1.277a5.6,5.6,0,0,0-1.766-1.043c-.274-.12-.539-.237-.785-.365a11.761,11.761,0,0,1-1.26-.811,8.286,8.286,0,0,0-1.863-1.092c-.009.115-.026.224-.04.327-.012.078-.024.155-.031.236a.416.416,0,0,1-.269.352.421.421,0,0,1-.434-.092,12.537,12.537,0,0,0-2.072-1.51,9.945,9.945,0,0,1-.916-.677,4.668,4.668,0,0,0-1.418-.91c-.172-.04-.367.12-.651.371a1.5,1.5,0,0,1-1.134.532c-.546-.063-.843-.536-1.082-.916s-.351-.533-.49-.5c-.2.046-.427.354-.631.627-.373.5-.882,1.18-1.708.878a1.193,1.193,0,0,1-.565-.516c-.1-.147-.142-.2-.182-.2a1.225,1.225,0,0,0-.4.3,3.145,3.145,0,0,1-.305.281c-.379.291-.755.6-1.129.9-.488.4-.975.791-1.47,1.157-.866.644-1.293.351-1.624-.062-.151-.189-.214-.269-.455-.241-.325.034-.993.833-1.983,2.376l-.434.659a13.439,13.439,0,0,0-1.442,2.517A.413.413,0,0,1,397.47,253.987Z" transform="translate(-396.548 -244.205)"/></g><g transform="translate(19.428)"><path class="b" d="M435.526,224.07a26.615,26.615,0,0,0-18.01-26.68,9.677,9.677,0,0,0-1.867-.479c-4.025-.4-8.033-1.546-12.016-2.067,1.137,1.767,3.137,2.109,4.665,3.235-7.523.469-15.111.353-22.634.824,1.294.688,2.822,1.025,4.129,1.761,1.108.623,1.961,1.816,3.132,2.271-4.441-2.389-15.358,2.049-17.152,6.83,4.044-.97,6.058,1,7.7,4.518.972,2.083,3.356,16.088,3.356,16.088-.06-.03-.107-.235-.108-.113a21.878,21.878,0,0,0,3.048,3.615c.611-1.215.57-2.793.884-4.091a16.276,16.276,0,0,1,1.431-3.457c.616-1.231,1.478-2.274,2.152-3.479.527-.942,1.543-3.587,2.579-4.012s3.522.767,4.622.9a63.011,63.011,0,0,0,8.192.171,30.408,30.408,0,0,0,8.29-1.458c1.305-.376,2.2-1.2,3.239-.362a9.465,9.465,0,0,1,1.42,1.892,45.494,45.494,0,0,1,4.723,7.608,23.816,23.816,0,0,1,2.274,7.115c1.064-.255,5.364-3.134,5.617-4.235Z" transform="translate(-374.962 -194.075)"/><path class="b" d="M436.342,224.1c.554-12.236-7.2-23.977-19.05-27.589a60.777,60.777,0,0,0-6.228-1.08c-2.4-.463-4.776-.988-7.194-1.319-.6-.082-1.339.527-.892,1.16,1.265,1.789,3.221,2.319,4.949,3.518l.4-1.472c-7.538.456-15.1.365-22.634.824-.724.043-1.148,1.1-.4,1.471,1.335.667,2.846,1,4.129,1.762,1.123.666,1.931,1.718,3.132,2.27.909.418,1.714-.9.8-1.363-3.157-1.6-7.24-.551-10.326.708-3.127,1.275-6.661,3.305-7.985,6.594-.241.6.446,1.087.971.971,5.864-1.293,7.178,4.952,8.075,9.281.741,3.576,1.394,7.173,2.008,10.775l1.443-.609a.9.9,0,0,0-.789-.5.8.8,0,0,0-.682,1.188,21.538,21.538,0,0,0,3.173,3.774.8.8,0,0,0,1.24-.159c.76-1.73.643-3.644,1.315-5.4a45.717,45.717,0,0,1,3.152-5.628c.561-1.019,1.007-2.871,2.011-3.536.942-.624,2.858.47,3.856.7a24.434,24.434,0,0,0,5.708.33,46.977,46.977,0,0,0,6.166-.284,29.047,29.047,0,0,0,6.088-1.463,4.04,4.04,0,0,1,1.4-.479c.619.051,1,.749,1.306,1.2.591.873,1.232,1.709,1.83,2.577,2.492,3.62,5.017,7.957,5.506,12.413a.8.8,0,0,0,1,.761,12.647,12.647,0,0,0,3.789-2.239c.922-.7,2.218-1.562,2.41-2.789a62.977,62.977,0,0,0,.331-6.367c.053-1.015-1.526-1.012-1.579,0-.1,1.967-.2,3.934-.307,5.9a1.85,1.85,0,0,1-.021.387c-.08.269.163-.273-.088.093a6.96,6.96,0,0,1-1.543,1.412,11.517,11.517,0,0,1-3.411,2.081l1,.762c-.454-4.152-2.482-8.151-4.682-11.636q-.946-1.5-2-2.919a17.032,17.032,0,0,0-1.822-2.482c-1.547-1.437-3.371-.186-5.066.279a29.336,29.336,0,0,1-7.407,1.175,54.309,54.309,0,0,1-7.479-.118c-1.54-.193-2.981-1.067-4.554-1.047-1.427.018-2.182,1.308-2.782,2.438-.394.742-.716,1.522-1.136,2.25-.643,1.118-1.438,2.137-2.036,3.281a16.422,16.422,0,0,0-1.511,3.646,22.506,22.506,0,0,1-.8,3.9l1.24-.159a19.824,19.824,0,0,1-2.926-3.455l-.681,1.188h.032l-.682-.391.076.114a.793.793,0,0,0,1.443-.608c-.7-4.106-1.435-8.214-2.329-12.283a16.716,16.716,0,0,0-2.167-5.933,6.626,6.626,0,0,0-7.53-2.943l.971.972c1.123-2.79,4.554-4.575,7.183-5.611,2.559-1.01,6.174-2.08,8.809-.747l.8-1.363c-1.194-.548-2.007-1.613-3.132-2.27-1.293-.757-2.793-1.1-4.129-1.762l-.4,1.471c7.538-.458,15.1-.366,22.634-.823a.8.8,0,0,0,.4-1.472c-1.446-1-3.326-1.457-4.382-2.951l-.892,1.159c2.418.331,4.8.856,7.2,1.319a53.442,53.442,0,0,1,6.689,1.229,25.234,25.234,0,0,1,9.616,5.868,26.312,26.312,0,0,1,7.813,20.05C434.717,225.113,436.3,225.111,436.342,224.1Z" transform="translate(-374.99 -194.101)"/></g></g></g></svg>