<svg xmlns="http://www.w3.org/2000/svg" width="155.56" height="155.56" viewBox="0 0 155.56 155.56"><defs><style>.a{fill:#fff;stroke:#707070;}.b{fill:#1594c4;}.c{fill:#042189;}.d,.f{fill:none;}.d{stroke:#042189;stroke-linecap:round;stroke-linejoin:round;stroke-width:0.752px;}.e{stroke:none;}</style></defs><g transform="translate(-681 -352)"><g class="a" transform="translate(681 352)"><circle class="e" cx="77.78" cy="77.78" r="77.78"/><circle class="f" cx="77.78" cy="77.78" r="77.28"/></g><g transform="translate(707 376.157)"><g transform="translate(37.514 71.006)"><path class="b" d="M257.478,410.226l2.066,1.28A2.453,2.453,0,0,0,257.478,410.226Z" transform="translate(-233.716 -410.226)"/><path class="b" d="M265.26,416.7a56.154,56.154,0,0,0-4.91-5.24h0a3.188,3.188,0,0,1-.386,2.727c-1.13,2.171-4,2.579-5.98,2.992a50.344,50.344,0,0,0-3.954,6.724,50.224,50.224,0,0,0-3.954-6.724c-1.974-.413-4.849-.821-5.98-2.992a3.191,3.191,0,0,1-.385-2.727h0a56.151,56.151,0,0,0-4.91,5.24c-1.038,1.729,1.069,3.776,2.286,4.963,1.336,1.306,3.279,3.306,4.726,1.7a58.6,58.6,0,0,0,3.636-5.088l-2.812,4.927c.824.8,7.393,15.3,7.393,15.3s6.57-14.5,7.394-15.3l-2.812-4.926a58.708,58.708,0,0,0,3.636,5.087c1.447,1.608,3.39-.392,4.726-1.7C264.191,420.479,266.3,418.432,265.26,416.7Z" transform="translate(-234.523 -410.183)"/><path class="b" d="M239.535,411.506l2.066-1.28A2.451,2.451,0,0,0,239.535,411.506Z" transform="translate(-234.347 -410.226)"/></g><path class="c" d="M199.7,448.062a82.37,82.37,0,0,1,5.42-10.4c2.138-3.409,4.629-6.721,8.045-8.933a125.45,125.45,0,0,1,12.706-6.756c3.408-1.686,6.9-3.216,10.41-4.673.912-.379.511-1.885-.414-1.5q-9.212,3.823-18.064,8.464a35.846,35.846,0,0,0-8.626,5.657,38.526,38.526,0,0,0-5.823,7.638,85,85,0,0,0-5,9.715c-.4.908.938,1.7,1.344.786Z" transform="translate(-198.282 -339.027)"/><path class="c" d="M301.336,446.528c-2.946-7.075-6.652-14.988-13.321-19.264a129.118,129.118,0,0,0-12.983-6.863c-3.379-1.656-6.84-3.157-10.315-4.6-.924-.383-1.327,1.122-.414,1.5,3.351,1.39,6.686,2.845,9.944,4.442,4.118,2.019,8.3,3.969,12.207,6.377,6.735,4.148,10.433,11.738,13.381,18.819.38.912,1.886.511,1.5-.413Z" transform="translate(-195.98 -339.027)"/><path class="c" d="M278.908,382.2c-.067,3.114-2.524,7.807-6.173,5.211a.784.784,0,0,0-1.143.465c-2.231,8.153-6.916,17.223-15.213,20.555-7.823,3.141-16.3-.343-21.255-6.749a35.855,35.855,0,0,1-6.092-13.379.789.789,0,0,0-1.143-.465c-3.4,1.552-5.428-2.7-5.489-5.431-.057-2.593,1.3-6.322,4.445-6.156a.786.786,0,0,0,.778-.777c0-10.009,2.842-21.933,12.848-26.406a23.364,23.364,0,0,1,13.578-1.488,21.905,21.905,0,0,1,13.087,8.4c4.253,5.583,6.069,12.622,6.11,19.562a.79.79,0,0,0,.985.749c3.21-.534,4.621,3.4,4.676,5.915a.779.779,0,0,0,1.557,0c-.081-3.678-2.345-8.131-6.647-7.415l.984.75c-.071-12.024-5.944-25.17-18.244-28.936-9.285-2.842-20.153.389-25.494,8.651-3.794,5.868-5,13.348-5,20.222l.777-.778c-4.349-.23-6.334,4.9-5.948,8.52.414,3.866,3.575,7.886,7.778,5.966l-1.143-.465c2.108,8.489,6.734,17.359,15.2,20.916a18.988,18.988,0,0,0,12.69.779A21.859,21.859,0,0,0,265.71,403.2a39.732,39.732,0,0,0,7.384-14.911l-1.144.465a4.7,4.7,0,0,0,5.848-.181,8.356,8.356,0,0,0,2.668-6.373A.779.779,0,0,0,278.908,382.2Z" transform="translate(-197.489 -341.491)"/><path class="c" d="M248.215,377.726c0,.792-.048,1.582-.082,2.373-.024.563.017,1.139-.032,1.7-.081.937-1.221,1.44-1.878,1.99a2.093,2.093,0,0,0-.635,2.945A7.056,7.056,0,0,0,248.308,389c.889.458,1.677-.884.786-1.344a5.135,5.135,0,0,1-2.266-1.875c-.176-.347.053-.5.33-.747.4-.366.865-.656,1.288-1a3.036,3.036,0,0,0,1.218-2.4c.04-1.3.1-2.606.107-3.908a.778.778,0,0,0-1.556,0Z" transform="translate(-196.633 -340.389)"/><path class="c" d="M238.2,373.043c-.041,2.045.189,4.083.195,6.127a1.2,1.2,0,1,0,2.406,0c0-2.044-.236-4.082-.195-6.127a1.213,1.213,0,0,0-1.2-1.2,1.226,1.226,0,0,0-1.2,1.2Z" transform="translate(-196.88 -340.569)"/><path class="c" d="M257.263,373.043c-.041,2.045.19,4.083.195,6.127a1.2,1.2,0,0,0,2.407,0c-.005-2.044-.236-4.082-.195-6.127a1.2,1.2,0,0,0-2.407,0Z" transform="translate(-196.21 -340.569)"/><path class="c" d="M242.127,392.871a10.437,10.437,0,0,0,8.609,2.533,10.656,10.656,0,0,0,5.98-3.189c.67-.742-.428-1.846-1.1-1.1a9.239,9.239,0,0,1-4.95,2.723,8.741,8.741,0,0,1-7.438-2.067c-.762-.641-1.868.454-1.1,1.1Z" transform="translate(-196.751 -339.9)"/><path class="b" d="M263.769,383.351c-1.476-.362-6.473-.758-6.8,1.265-.415,2.56,7.04,2.239,8.512,1.185C267.813,384.131,263.769,383.351,263.769,383.351Z" transform="translate(-196.221 -340.175)"/><path class="b" d="M239.042,383.351c-1.476-.362-6.474-.758-6.8,1.265-.415,2.56,7.039,2.239,8.512,1.185C243.085,384.131,239.042,383.351,239.042,383.351Z" transform="translate(-197.089 -340.175)"/><path class="c" d="M241.522,406.763a7.294,7.294,0,0,1-.223,2.029c-.178.916-.4,1.823-.634,2.725-.294,1.126-.61,2.249-.955,3.362-.3.957,1.2,1.367,1.5.413.356-1.142.679-2.3.979-3.453.238-.915.46-1.835.636-2.765a9.944,9.944,0,0,0,.254-2.311c-.054-1-1.611-1-1.557,0Z" transform="translate(-196.828 -339.368)"/><path class="c" d="M256.4,406.219a12.828,12.828,0,0,0,.488,4.248,10.675,10.675,0,0,0,1.551,3.8.8.8,0,0,0,1.064.278.783.783,0,0,0,.279-1.064,9.449,9.449,0,0,1-1.394-3.428,11.423,11.423,0,0,1-.432-3.835.784.784,0,0,0-.778-.778.794.794,0,0,0-.777.778Z" transform="translate(-196.241 -339.388)"/><g transform="translate(48.305 70.244)"><path class="c" d="M257.443,411c.673.109,1.489.325,1.639,1.1a3.2,3.2,0,0,1-.9,2.456c-1.251,1.35-3.33,1.593-5.036,1.946a.79.79,0,0,0-.466,1.143,26.911,26.911,0,0,0,2.9,4.409c1.018,1.4,2.145,3.306,4.181,2.6a8.566,8.566,0,0,0,2.943-2.172,14.7,14.7,0,0,0,2.3-2.625,3.4,3.4,0,0,0,.448-3.161A6.8,6.8,0,0,0,264.18,415a54.7,54.7,0,0,0-3.915-4.016c-.739-.672-1.843.425-1.1,1.1,1,.912,1.941,1.909,2.872,2.892.533.561,1.064,1.126,1.561,1.72a1.574,1.574,0,0,1,.432,1.609,6.652,6.652,0,0,1-1.781,2.429,16.026,16.026,0,0,1-2.235,2.031c-.741.5-1.356.7-1.985-.034-.43-.5-.813-1.051-1.2-1.586a26.354,26.354,0,0,1-2.807-4.286L253.557,418c2.323-.48,5.05-.961,6.36-3.192a4.192,4.192,0,0,0,.569-3.438,3.177,3.177,0,0,0-2.629-1.868c-.98-.158-1.4,1.342-.414,1.5Z" transform="translate(-244.679 -409.49)"/><path class="d" d="M256.647,422.806" transform="translate(-244.537 -409.022)"/><path class="c" d="M252.947,416.62c-.644.932-1.26,1.885-1.855,2.849a21.511,21.511,0,0,0-2.423,4.723l1.422-.186-3.238-6.448-.471-.938c-.449-.9-1.792-.108-1.344.786l3.238,6.448.471.938a.787.787,0,0,0,1.422-.186,11.373,11.373,0,0,1,.925-2.046c.436-.812.906-1.6,1.39-2.385.581-.936,1.179-1.862,1.805-2.768a.785.785,0,0,0-.278-1.064.793.793,0,0,0-1.065.278Z" transform="translate(-244.948 -409.253)"/></g><g transform="translate(36.765 70.244)"><path class="c" d="M241.6,409.5a3.194,3.194,0,0,0-2.59,1.775,4.127,4.127,0,0,0,.53,3.531c1.3,2.234,4.043,2.713,6.36,3.192l-.466-1.143a23.652,23.652,0,0,1-2.4,3.715c-.441.619-.884,1.239-1.353,1.836-.424.541-.822,1.03-1.57.737a8.128,8.128,0,0,1-2.448-1.96,11.556,11.556,0,0,1-1.913-2.2,1.707,1.707,0,0,1-.1-2.042c.315-.426.871-1.016,1.3-1.473,1.077-1.158,2.17-2.325,3.34-3.389.743-.675-.359-1.772-1.1-1.1-1.207,1.1-2.334,2.3-3.44,3.5-1.22,1.32-2.488,2.625-1.706,4.558a9,9,0,0,0,2.122,2.857,15.074,15.074,0,0,0,2.723,2.366,2.736,2.736,0,0,0,3.069.108,7.614,7.614,0,0,0,1.5-1.736q1.019-1.368,1.972-2.783a15.773,15.773,0,0,0,1.35-2.2.789.789,0,0,0-.465-1.143c-1.706-.353-3.785-.6-5.036-1.946a3.288,3.288,0,0,1-.916-2.391c.112-.814.96-1.05,1.653-1.161.985-.158.567-1.658-.414-1.5Z" transform="translate(-233.799 -409.49)"/></g><g transform="translate(17.013)"><path class="c" d="M242.01,360.133c-.825,2.023-.145,6.567,1.607,8.613,1.92,2.243,4.915,4.98,7.247,5.649C249.232,367.29,253,363.653,256,359.986c.131,2.386.434,5.41,2.563,6.843.554-1.955,3.153-4.673,3.153-4.673,2.467,1.693,8.361,23.14,8.361,23.14,3.183-2.449,4.078-5.748,4.888-9.72.674-3.309,2.167-18.01-4.919-24.92C257.3,338.233,244.3,342.6,241.66,343.4c-4.076,1.239-9.628,5.838-12.283,9.1-8.094,9.936-11.129,12.046-14.278,14.158,1.667.546,7.466,1.552,11.3-1.377-4.7,6.693,1.506,12.08,5.716,16.862-1.53-4.3-.88-8.232.71-12.631C235.084,363.271,242.01,360.133,242.01,360.133Z" transform="translate(-214.704 -341.617)"/><path class="c" d="M270.087,385.7a.38.38,0,0,1-.126-.021.4.4,0,0,1-.256-.269c-2.246-8.179-6.112-20.558-7.956-22.688a13.955,13.955,0,0,0-2.8,4.222.391.391,0,0,1-.245.264.4.4,0,0,1-.355-.043c-2.059-1.386-2.516-4.163-2.673-6.153l-.166.2c-2.8,3.35-5.7,6.812-4.251,13.107a.4.4,0,0,1-.113.375.39.39,0,0,1-.382.093c-2.441-.7-5.532-3.547-7.437-5.773-1.629-1.9-2.337-5.767-1.923-8.106-1.85,1.022-6.468,3.97-8.2,8.751-1.829,5.059-2.035,8.64-.71,12.364a.394.394,0,0,1-.668.393c-.449-.509-.92-1.026-1.4-1.55-3.776-4.137-8.015-8.784-5.2-14.38-3.82,1.9-8.67,1.073-10.244.558a.394.394,0,0,1-.1-.7c2.948-1.976,6-4.019,14.191-14.079,2.829-3.473,8.4-7.987,12.474-9.225l.191-.058c13.19-4.057,22.823,1.793,28.582,7.407,6.933,6.761,5.928,20.871,5.03,25.281-.8,3.947-1.738,7.419-5.034,9.954A.392.392,0,0,1,270.087,385.7Zm-8.363-23.93a.392.392,0,0,1,.224.07c2.362,1.62,7.27,18.865,8.358,22.778,2.714-2.329,3.524-5.39,4.281-9.111.877-4.3,1.875-18.042-4.807-24.557-5.605-5.469-14.979-11.158-27.8-7.219l-.191.059c-3.806,1.156-9.326,5.571-12.092,8.968-7.611,9.344-10.843,11.846-13.645,13.751,2.247.506,6.926.907,10.123-1.533a.395.395,0,0,1,.563.54c-4.018,5.719.2,10.343,4.28,14.814l.246.269c-.97-4.186.038-7.986,1.2-11.213,2.289-6.327,9.1-9.474,9.393-9.605a.4.4,0,0,1,.529.509c-.757,1.855-.134,6.251,1.54,8.207s4.252,4.381,6.417,5.3c-1.167-6.247,1.87-9.876,4.561-13.093.268-.32.535-.64.8-.959a.395.395,0,0,1,.7.229c.135,2.449.477,4.878,1.979,6.219a17.874,17.874,0,0,1,3.057-4.3A.4.4,0,0,1,261.725,361.775Z" transform="translate(-214.718 -341.63)"/></g><path class="c" d="M241.706,423.232l6.465,13.381.928,1.921a.794.794,0,0,0,1.363,0l6.465-13.382.929-1.92c.44-.912-.921-1.713-1.364-.8l-6.465,13.381-.927,1.921h1.363L244,424.355l-.929-1.92c-.442-.915-1.8-.115-1.363.8Z" transform="translate(-196.759 -338.806)"/><g transform="translate(32.271 50.02)"><path class="c" d="M270.3,390.6a40.388,40.388,0,0,1-6.831,6.862,6.537,6.537,0,0,0-.573-1.911,12.82,12.82,0,0,0-1.16,1.184,13.663,13.663,0,0,1-1.378,1.034c-.571.379-1.154.73-1.73,1.1s-1.13,1.115-1.852,1.261c.265-.23.667-.774.627-1.088a18.342,18.342,0,0,1-6.966,2.441,8.9,8.9,0,0,1-7.106-2.366c.333.348.566.786.9,1.141a7.723,7.723,0,0,1,1.428,1.557,25.847,25.847,0,0,1-4.3-2.289,36.173,36.173,0,0,1-5.651-3.462c-.119.8.475,1.45.691,2.171-1.95-.89-6.271-5.037-6.271-5.037a16.52,16.52,0,0,0,1.736,7.058,26.115,26.115,0,0,0,5.659,6.39,10.594,10.594,0,0,0,2.316,1.474,4.166,4.166,0,0,1-.372-1.338,10.438,10.438,0,0,0,2.6,1.886,14.911,14.911,0,0,0,3.244,1.667,6.282,6.282,0,0,1-.345-1.072c.826.314,1.539.8,2.361,1.121.779.3,1.858,1.1,2.694,1.08a15.568,15.568,0,0,0,5.7-2.571c-.2.3-.828.829-.71,1.136a11.3,11.3,0,0,0,4.115-2.362c.651-.544,1.369-1.008,2.036-1.532a15.491,15.491,0,0,1,1.56-1.374c-.075.113-.118.256-.182.359a17.418,17.418,0,0,0,4.916-4.559C268.4,398.926,270.31,396.8,270.3,390.6Z" transform="translate(-229.434 -389.93)"/><path class="c" d="M269.726,390.274A33.98,33.98,0,0,1,263,397l1.19.493a5.455,5.455,0,0,0-.6-2.1.71.71,0,0,0-1.166-.307,35.313,35.313,0,0,1-2.914,2.443c-.489.312-1,.6-1.461.946a5.2,5.2,0,0,1-1.438,1.01l.678,1.166a2.622,2.622,0,0,0,.806-1.4.707.707,0,0,0-1.024-.788c-4.173,2.388-9.28,3.643-13.227.184a.7.7,0,0,0-.986.985,20.738,20.738,0,0,1,2.216,2.557l.788-1.025a34.163,34.163,0,0,1-4.911-2.631,32.492,32.492,0,0,1-4.731-2.939.707.707,0,0,0-1.189.493,6.086,6.086,0,0,0,.715,2.356l1.024-.788c-2.3-1.121-4.293-3.17-6.129-4.927a.705.705,0,0,0-1.19.493,15.274,15.274,0,0,0,2.791,8.877c1.83,2.5,4.457,5.553,7.432,6.716a.7.7,0,0,0,.858-.857,4.443,4.443,0,0,1-.348-1.153L239,407.3a16.167,16.167,0,0,0,6.147,3.732.7.7,0,0,0,.857-.858,9.29,9.29,0,0,1-.345-1.071l-.857.858c1.136.475,2.246,1.068,3.345,1.623a3.791,3.791,0,0,0,2.354.55,14.125,14.125,0,0,0,5.59-2.614l-.846-1.1c-.416.525-.882.927-.913,1.628a.7.7,0,0,0,.882.672,11.148,11.148,0,0,0,3.85-2.081c.706-.55,1.415-1.089,2.13-1.626.67-.5,1.214-1.153,1.9-1.63l-.953-.954-.182.359c-.3.594.328,1.338.953.954a17.685,17.685,0,0,0,5.965-6.1,17.46,17.46,0,0,0,2.149-9.018.7.7,0,0,0-1.394,0,15.3,15.3,0,0,1-7.424,13.916l.954.953.182-.359c.289-.57-.34-1.383-.954-.953-2.459,1.719-4.536,4.374-7.544,5.2l.883.672c.007-.156.412-.526.505-.643.444-.559-.144-1.6-.845-1.094a12.92,12.92,0,0,1-4.958,2.409c-.991.167-1.861-.514-2.728-.918-.844-.393-1.668-.83-2.528-1.19-.53-.223-.954.4-.857.857a8.974,8.974,0,0,0,.345,1.072l.857-.858a15.14,15.14,0,0,1-5.532-3.372c-.385-.4-1.263-.125-1.19.493a5.648,5.648,0,0,0,.4,1.524l.858-.857a11.57,11.57,0,0,1-3.415-2.507,26.629,26.629,0,0,1-3.4-3.865,13.955,13.955,0,0,1-2.387-7.877l-1.189.493c1.914,1.833,4.007,3.976,6.412,5.146.49.238,1.258-.169,1.024-.788a5.6,5.6,0,0,1-.666-1.984l-1.19.493a34.437,34.437,0,0,0,5.012,3.157,36.125,36.125,0,0,0,5.244,2.772.7.7,0,0,0,.787-1.024,22.27,22.27,0,0,0-2.434-2.838l-.986.985c4.448,3.9,10.144,2.766,14.916.035l-1.024-.788a1.142,1.142,0,0,1-.447.781.7.7,0,0,0,.678,1.165c1.182-.379,2.191-1.433,3.231-2.1a17.857,17.857,0,0,0,1.708-1.2c.543-.445.942-1.022,1.49-1.457l-1.166-.307a4.853,4.853,0,0,1,.549,1.726.706.706,0,0,0,1.19.493,35.134,35.134,0,0,0,6.94-7C271.444,390.241,270.236,389.543,269.726,390.274Z" transform="translate(-229.458 -389.952)"/></g></g></g></svg>