<svg xmlns="http://www.w3.org/2000/svg" width="155.56" height="155.56" viewBox="0 0 155.56 155.56"><defs><style>.a{fill:#fff;stroke:#707070;}.b{fill:#1594c4;}.c{fill:#042189;}.d{stroke:none;}.e{fill:none;}</style></defs><g transform="translate(-685 -163)"><g class="a" transform="translate(685 163)"><circle class="d" cx="77.78" cy="77.78" r="77.78"/><circle class="e" cx="77.78" cy="77.78" r="77.28"/></g><g transform="translate(708 180.258)"><path class="b" d="M127.848,392.518c-.363-2.74-9.57-25.213-10.123-27.763a37.026,37.026,0,0,0-4.557-13.123,26.551,26.551,0,0,0-10.549-10.573A25,25,0,0,0,88.4,338.839a26.017,26.017,0,0,0-13.881,5.82c-5.551,4.777-8.378,12.018-9.839,19.2a4.893,4.893,0,0,0-.111,2.085,2.569,2.569,0,0,0,.111.348l-.4.181c-1.793,5.164-11.031,19.915-10.146,21.818.986,2.148,4.477,3.474,6.2,4.975,1.2-.861,1.532-2.322,2.59-3.262-.017,2.14-2.235,6.017-1.208,7.778.529.9,5.906,4.485,7.114,5.156,1.01-1.642,1.674-3.632,2.716-5.227.355,1.872-.032,5.8.932,7.384,0,0,6.506,2.447,8.78,3.23l.182.031a32.739,32.739,0,0,0,.379-6.862l.285-.363a42.572,42.572,0,0,1-12.792-17.995,3.8,3.8,0,0,1-1.935.536c-2.724,0-4.927-3.016-4.927-6.743,0-3.458,1.911-6.317,4.366-6.7,0-.427.008-.846.017-1.256q2.5,2.582,4.99,5.172a22.432,22.432,0,0,1-1.982-4.825c-.5-2.084.079-3.616.466-5.606,0,0,2.566-.489,3.98-.616a3.232,3.232,0,0,0,1.026-.2c1.24-.561,3.286-8.71,4.438-10.447q-.272,3.612-.544,7.224c-.2,2.709,3.4,1.982,4.951,1.375a1.013,1.013,0,0,0,.521-.356,1.065,1.065,0,0,0,.111-.529q.059-1.421.119-2.842c-.056,1.327.173,3.719,1.428,4.517.868.553,2.424.229,3.443.2,1.366-.032,2.732-.071,4.1-.135a1.225,1.225,0,0,0,.75-.189,1.288,1.288,0,0,0,.379-.821l.64-3.388a6.607,6.607,0,0,1,.908,2.314c.442,1.327,1.39,1.643,2.677,1.6,1.027-.024,2.061-.055,3.1-.087a1.221,1.221,0,0,0,.711-.166c.371-.285.3-.853.2-1.3q-.924-3.9-1.848-7.785a23.1,23.1,0,0,1,4.595,8.5c.616,2.093,3.554,1.295,5.14,1.264-.623-2.464-1.319-4.92-1.863-7.4.071.308,1.09,1.082,1.326,1.421a43.241,43.241,0,0,1,3.862,8.6c.253,1.556-.735,3.025-1.153,4.461a30,30,0,0,1-2.424,5.954c1.493-1.824,3.917-2.953,5.488-4.619,2.353.5,4.161,3.292,4.161,6.656,0,3.727-2.211,6.743-4.927,6.743a3.844,3.844,0,0,1-2.1-.639c-2.543,7.611-7.155,14.331-12.335,18.295l.932.15c0,2.322.008,4.666-.07,6.98l.331.017c1.967-1.083,5.512-.372,5.922-3.112a62.782,62.782,0,0,1,.924-6.23c.758,1.832.766,4.62,1.224,6.618,3.056-.363,6.814-2.353,9.428-3.941-1.129-3-1.256-7.028-1.334-10.218,1.145,2.212,2.282,4.478,3.221,6.768,1.469-.9,2.977-1.737,4.454-2.669C128,394.539,128.093,394.421,127.848,392.518Z" transform="translate(-36.767 -337.837)"/><path class="b" d="M80.2,448.517c1.139-1.779,1.141-4.065,1.037-6.159a45.389,45.389,0,0,0-.89-7.135c1.982,2.664,7.643,1.616,10.623,1.624,3.519.009,6.911-1.092,10.358-1.539-1.611,3.879.681,9.489,1.662,13.19-6,.852-12.35,2.491-18.406.9-1.484-.391-3.478-.3-4.772-1.005" transform="translate(-35.863 -334.443)"/><path class="c" d="M119.873,376.865c-.065,2.951-2.221,7.527-5.857,5.432a.788.788,0,0,0-1.143.465c-2.722,8-8.057,16.751-16.088,20.326a11.474,11.474,0,0,1-9.423.2,26.321,26.321,0,0,1-8.95-6.882,43.983,43.983,0,0,1-8.219-13.545.792.792,0,0,0-1.143-.465c-5.77,3.01-8.3-10.214-1.9-11.489a.785.785,0,0,0,.571-.749c.056-10.312,2.98-21.95,13.347-26.394a24.21,24.21,0,0,1,13.77-1.505,23.287,23.287,0,0,1,13.463,8.366,31.686,31.686,0,0,1,6.63,19.494.79.79,0,0,0,.778.777c2.924,0,4.105,3.6,4.157,5.965a.778.778,0,0,0,1.556,0c-.071-3.254-1.877-7.521-5.713-7.521l.777.778c-.209-12.226-6.758-25.1-19.114-28.834-9.441-2.856-20.6.478-26.158,8.764-3.932,5.863-5.013,13.19-5.05,20.109l.57-.75c-8.447,1.683-4.979,18.544,3.1,14.332l-1.143-.465c3.179,8.259,9,17.068,17.209,21.045a12.888,12.888,0,0,0,10.025.76,24.346,24.346,0,0,0,10.109-7.222,43,43,0,0,0,8.336-14.687l-1.143.466a4.751,4.751,0,0,0,5.767-.607,8.5,8.5,0,0,0,2.432-6.169A.778.778,0,0,0,119.873,376.865Z" transform="translate(-36.493 -337.779)"/><path class="c" d="M89.179,372.4c0,.791-.047,1.582-.081,2.373-.024.563.016,1.139-.033,1.7-.081.938-1.221,1.441-1.878,1.991a2.094,2.094,0,0,0-.635,2.945,7.068,7.068,0,0,0,2.72,2.264c.889.458,1.677-.884.786-1.344a5.145,5.145,0,0,1-2.267-1.875c-.175-.347.054-.5.331-.748.4-.365.864-.656,1.287-1a3.034,3.034,0,0,0,1.218-2.4c.04-1.3.1-2.608.108-3.908a.779.779,0,0,0-1.557,0Z" transform="translate(-35.639 -336.677)"/><path class="c" d="M79.159,367.716c-.041,2.044.19,4.083.195,6.127a1.2,1.2,0,0,0,2.407,0c-.005-2.044-.236-4.083-.195-6.127a1.2,1.2,0,0,0-2.407,0Z" transform="translate(-35.886 -336.857)"/><path class="c" d="M98.228,367.716c-.041,2.044.189,4.083.195,6.127a1.2,1.2,0,1,0,2.406,0c0-2.044-.236-4.083-.195-6.127a1.2,1.2,0,0,0-2.406,0Z" transform="translate(-35.216 -336.857)"/><path class="c" d="M80.71,399.376A36.359,36.359,0,0,1,78.678,412.2c-.718,2.245-1.562,4.425-2.411,6.622a14.255,14.255,0,0,0-1.194,5.537,13.56,13.56,0,0,0,1.7,5.552,62.826,62.826,0,0,1,2.87,6.511c1.463,4.126,2.235,8.849.621,13.047-.36.935,1.144,1.341,1.5.414,1.5-3.909,1.058-8.357-.106-12.3a44.664,44.664,0,0,0-2.515-6.33c-.983-2.09-2.3-4.163-2.489-6.514a13.347,13.347,0,0,1,1.291-5.946c.868-2.188,1.671-4.387,2.38-6.631a36.68,36.68,0,0,0,1.946-12.787c-.039-1-1.6-1-1.557,0Z" transform="translate(-36.029 -335.729)"/><path class="c" d="M100.11,399.363c0,2.605,0,5.21-.1,7.814a13.953,13.953,0,0,0,.985,5.7,33.333,33.333,0,0,1,2.7,13.1,15.888,15.888,0,0,1-1.818,6.432,18.685,18.685,0,0,0-1.923,5.46c-.523,3.961,1.129,7.861,1.189,11.8a.778.778,0,0,0,1.556,0c-.061-4.01-1.908-8.13-1.124-12.133a28.526,28.526,0,0,1,2.327-5.821,15.225,15.225,0,0,0,1.35-5.744,31.965,31.965,0,0,0-2.474-12.807,14.084,14.084,0,0,1-1.212-5.993c.1-2.6.1-5.209.1-7.814a.778.778,0,0,0-1.556,0Z" transform="translate(-35.158 -335.729)"/><g transform="translate(65.24 69.855)"><path class="c" d="M101.128,406.906c1.292.073,2.4,1.573,3.219,2.435.95,1,2.013,1.836,3.042,2.749,1.409,1.248,2.75,2.572,4.182,3.795a34.519,34.519,0,0,1,2.717,2.3,3.121,3.121,0,0,1,1,1.559c.1.921-.834,1.515-1.475,2.009a12.893,12.893,0,0,0-2.715,2.926,17.984,17.984,0,0,0-2.19,4.1c-.278.761-.389,2.127-.938,2.727a.792.792,0,0,0-.121.943l5.847,8.055v-.786l-5.762,11c-.465.886.878,1.674,1.344.786l5.762-11a.774.774,0,0,0,0-.786l-5.849-8.055-.121.943a8.409,8.409,0,0,0,1.209-3.037,16.3,16.3,0,0,1,2.849-5.038c1.023-1.249,2.775-2,3.479-3.486a3.13,3.13,0,0,0-.617-3.274,18.889,18.889,0,0,0-3.134-2.835c-1.626-1.357-3.122-2.868-4.717-4.262-1.273-1.112-2.448-2.253-3.655-3.435a5.425,5.425,0,0,0-3.355-1.9c-1-.057-1,1.5,0,1.557Z" transform="translate(-100.38 -405.348)"/><path class="c" d="M115.328,420.6a36.065,36.065,0,0,1,17.283,9.909c4.9,5.038,8.405,11.249,11.169,17.668.394.917,1.736.125,1.344-.786-2.862-6.646-6.534-13.057-11.656-18.23A37.553,37.553,0,0,0,115.742,419.1a.778.778,0,0,0-.414,1.5Z" transform="translate(-99.874 -404.865)"/></g><g transform="translate(0 69.855)"><path class="c" d="M80.946,405.349a5.425,5.425,0,0,0-3.354,1.9c-1.209,1.182-2.381,2.322-3.656,3.435-1.6,1.393-3.091,2.9-4.717,4.262a18.882,18.882,0,0,0-3.133,2.835,3.133,3.133,0,0,0-.617,3.274c.7,1.485,2.454,2.235,3.478,3.486a16.305,16.305,0,0,1,2.85,5.038,8.424,8.424,0,0,0,1.209,3.037l-.122-.943a90.526,90.526,0,0,0-5.433,8.366,7.451,7.451,0,0,0-.839,1.838,1.347,1.347,0,0,0,.332,1.242,33.756,33.756,0,0,1,3.129,4.477q1.385,2.152,2.726,4.332c.523.852,1.869.071,1.344-.786q-1.514-2.463-3.087-4.891c-.654-1.007-1.312-2.014-2.015-2.987a10.4,10.4,0,0,0-.795-1.032,1.474,1.474,0,0,0-.255-.26c-.444-.275.061.356.121.319a4.868,4.868,0,0,0,.414-.964c.249-.49.527-.966.806-1.439.633-1.069,1.307-2.117,1.991-3.156q1.419-2.16,2.906-4.274a.787.787,0,0,0-.121-.943c-.551-.6-.66-1.962-.939-2.727a17.406,17.406,0,0,0-2.076-3.941,13.242,13.242,0,0,0-2.829-3.09c-.589-.454-1.447-1-1.475-1.817a2.77,2.77,0,0,1,1-1.751,34.963,34.963,0,0,1,2.718-2.3c1.374-1.169,2.661-2.438,4.006-3.639,1.084-.967,2.215-1.853,3.218-2.906.82-.86,1.929-2.362,3.218-2.435,1-.057,1-1.614,0-1.557Z" transform="translate(-36.375 -405.348)"/><path class="c" d="M66.807,419.1a37.553,37.553,0,0,0-17.726,10.061c-5.122,5.173-8.793,11.584-11.656,18.23-.392.91.948,1.7,1.344.786,2.764-6.419,6.265-12.63,11.168-17.668A36.073,36.073,0,0,1,67.221,420.6a.778.778,0,0,0-.414-1.5Z" transform="translate(-37.354 -404.865)"/></g><path class="c" d="M79.394,434.664c1.5,2.646,6,2.788,8.649,2.925,4.65.242,10.417.213,14.36-2.646.8-.583.027-1.933-.786-1.344-3.647,2.644-8.915,2.636-13.218,2.45a26.253,26.253,0,0,1-4.044-.443c-1.195-.239-2.96-.565-3.618-1.728a.778.778,0,0,0-1.344.785Z" transform="translate(-35.881 -334.505)"/><path class="c" d="M88.78,389.188c3.04.394,6.534.114,8.719-2.3.67-.741-.426-1.845-1.1-1.1-1.912,2.114-4.985,2.187-7.619,1.845a.782.782,0,0,0-.777.778.8.8,0,0,0,.777.778Z" transform="translate(-35.575 -336.189)"/><path class="b" d="M104.734,378.024c-1.476-.363-6.474-.759-6.8,1.265-.415,2.56,7.039,2.239,8.512,1.185C108.777,378.8,104.734,378.024,104.734,378.024Z" transform="translate(-35.226 -336.463)"/><path class="b" d="M80.006,378.024c-1.476-.363-6.473-.759-6.8,1.265-.415,2.56,7.039,2.239,8.512,1.185C84.05,378.8,80.006,378.024,80.006,378.024Z" transform="translate(-36.095 -336.463)"/><g transform="translate(29.711 26.173)"><path class="c" d="M75.3,367.234a7.029,7.029,0,0,1,7.418-2.252,5.99,5.99,0,0,1,4.189,5.3c.12,3.021-2.522,5.249-5.2,6.089a5.647,5.647,0,0,1-4.736-.424,6.076,6.076,0,0,1-2.731-3.663,6.68,6.68,0,0,1,1.061-5.046c.565-.83-.783-1.61-1.344-.786a8.35,8.35,0,0,0-1.308,5.765,7.3,7.3,0,0,0,2.723,4.481,6.937,6.937,0,0,0,5.671,1.435c3.445-.585,6.959-3.282,7.382-6.908a7.431,7.431,0,0,0-4.235-7.324,8.563,8.563,0,0,0-10.233,2.552C73.353,367.25,74.7,368.027,75.3,367.234Z" transform="translate(-65.829 -363.148)"/><path class="c" d="M95.206,367.677A6.425,6.425,0,0,1,98.5,365.26a5.9,5.9,0,0,1,8.3,4.559c.394,2.949-1.9,5.2-4.426,6.281a6.218,6.218,0,0,1-4.669.259,5.583,5.583,0,0,1-3.149-3.31,6.4,6.4,0,0,1,0-3.721,6.271,6.271,0,0,1,.649-1.65.779.779,0,0,0-1.344-.786,8.666,8.666,0,0,0-.944,6.083,7.164,7.164,0,0,0,3.187,4.307,7.084,7.084,0,0,0,5.663.671c3.316-.918,6.522-3.628,6.627-7.272a7.538,7.538,0,0,0-4.856-7.034,7.235,7.235,0,0,0-5.084-.023,8.336,8.336,0,0,0-4.594,3.267A.779.779,0,0,0,95.206,367.677Z" transform="translate(-65.12 -363.147)"/><path class="c" d="M87.74,371.93c.032-.059.068-.115.1-.171s.021-.032-.034.041c.025-.031.05-.06.077-.089a3.146,3.146,0,0,1,.266-.246c-.144.114.024-.012.047-.027.055-.034.109-.069.166-.1s.136-.076.2-.11c.021-.01.207-.094.126-.06a5.534,5.534,0,0,1,1.645-.361,7.088,7.088,0,0,1,.949,0c.087.006.173.016.259.024.172.018-.1-.022.083.012.139.026.278.051.416.084s.282.076.419.124c.037.013.253.107.082.028.056.026.112.051.166.08.1.054.2.119.3.181-.159-.1-.022-.021.016.016s.1.1.148.149a.778.778,0,0,0,1.1-1.1c-.947-1.055-2.685-1.249-4.013-1.153-1.414.1-3.125.556-3.868,1.89-.489.876.855,1.661,1.344.786Z" transform="translate(-65.346 -362.934)"/><path class="c" d="M107.876,371.289c.653-.513,1.281-1.059,1.958-1.54a10.293,10.293,0,0,1,1.037-.656c.112-.061.225-.118.34-.173.135-.063.178-.083.242-.108a6.351,6.351,0,0,1,.8-.262,2.332,2.332,0,0,1,.7-.106c.06,0,.385.024.258,0,.073.012.144.032.216.051.135.034-.023-.023.05.012a1.277,1.277,0,0,1,.155.088c-.09-.06,0,0,.037.038s.1.13.046.047a1.561,1.561,0,0,1,.117.212.784.784,0,0,0,1.064.278.793.793,0,0,0,.278-1.064c-.719-1.49-2.58-1.358-3.9-.885a16.636,16.636,0,0,0-4.5,2.965.783.783,0,0,0,0,1.1.8.8,0,0,0,1.1,0Z" transform="translate(-64.634 -363.016)"/><path class="c" d="M74.323,370.328c-.054-1.527-1.885-1.987-3.074-2.33-1.532-.443-3.343-1.15-4.808-.118a.8.8,0,0,0-.278,1.064.784.784,0,0,0,1.064.279,2.173,2.173,0,0,1,1.712-.261,16.822,16.822,0,0,1,1.776.5c.231.067.464.131.694.2.135.041.268.085.4.131.061.021.121.044.182.065.039.016.163.064.062.023a3.406,3.406,0,0,1,.365.178c.051.029.1.058.151.09.025.017.179.148.056.035.053.048.22.255.12.11.058.084.032.146.018.016.018.161,0-.168.005.014.035,1,1.591,1,1.556,0Z" transform="translate(-66.057 -363)"/></g><g transform="translate(27.348 0)"><path class="b" d="M70.341,363.7c-.383,1.993-.956,3.522-.462,5.605a22.282,22.282,0,0,0,1.984,4.83l-5.78-6a5.052,5.052,0,0,1-1.47-2.2,4.863,4.863,0,0,1,.107-2.083c1.463-7.178,4.286-14.423,9.841-19.2a26.029,26.029,0,0,1,13.883-5.823,24.939,24.939,0,0,1,14.219,2.225,26.483,26.483,0,0,1,10.548,10.573,36.935,36.935,0,0,1,4.556,13.123,7.928,7.928,0,0,1-.021,3.211c-.865,3.181-4.754,4.366-6.839,6.921a29.668,29.668,0,0,0,2.422-5.958l.012-.043a12.7,12.7,0,0,0-.549-8.5,36.176,36.176,0,0,0-2.171-4.51c-.236-.34-1.257-1.114-1.325-1.424.546,2.478,1.237,4.934,1.858,7.4-1.586.038-4.522.829-5.134-1.262a23.12,23.12,0,0,0-4.595-8.5l1.842,7.78c.108.455.177,1.026-.2,1.305a1.218,1.218,0,0,1-.708.168l-3.1.088c-1.287.036-2.229-.279-2.673-1.6a6.521,6.521,0,0,0-.91-2.318l-.64,3.388a1.3,1.3,0,0,1-.376.826,1.289,1.289,0,0,1-.754.19q-2.048.087-4.1.13c-1.021.022-2.573.351-3.445-.2-1.257-.8-1.483-3.189-1.431-4.519q-.057,1.422-.113,2.845a1.076,1.076,0,0,1-.114.531,1,1,0,0,1-.518.353c-1.56.609-5.156,1.332-4.952-1.374q.27-3.613.542-7.226c-1.148,1.736-3.2,9.891-4.439,10.448a3.168,3.168,0,0,1-1.024.2C72.908,363.218,70.341,363.7,70.341,363.7Z" transform="translate(-63.748 -337.837)"/><path class="c" d="M110.935,375.705a.789.789,0,0,1-.694-1.168,28.9,28.9,0,0,0,2.356-5.8,11.965,11.965,0,0,0-.5-8.016c-.377-.88-.69-1.587-.953-2.157q.1.374.195.746c.207.789.414,1.579.613,2.368a.79.79,0,0,1-.746.982c-.284.007-.612.04-.964.075-1.7.168-4.269.418-4.948-1.9a22.36,22.36,0,0,0-2.134-4.958l.908,3.834a1.9,1.9,0,0,1-.5,2.121,1.94,1.94,0,0,1-1.157.324l-3.1.088a3.123,3.123,0,0,1-3.34-1.864l-.129.687a1.724,1.724,0,0,1-1.872,1.658q-2.056.087-4.113.13c-.231.005-.491.028-.764.051a5.094,5.094,0,0,1-3.123-.378,2.985,2.985,0,0,1-.94-.993,2.255,2.255,0,0,1-.522.272c-.351.137-3.46,1.3-5.128.061a2.371,2.371,0,0,1-.9-2.229l.149-1.987c-1.328,3.839-2.029,5.582-2.934,5.987a3.659,3.659,0,0,1-1.22.26c-1.024.092-2.624.367-3.443.513-.045.212-.091.421-.137.626a8.446,8.446,0,0,0-.225,4.116,21.7,21.7,0,0,0,1.92,4.655.789.789,0,0,1-1.272.9l-5.78-6a5.728,5.728,0,0,1-1.67-2.565,5.489,5.489,0,0,1,.1-2.423c1.8-8.814,5.194-15.42,10.1-19.64a26.605,26.605,0,0,1,14.3-6.007,25.532,25.532,0,0,1,14.669,2.3,27.18,27.18,0,0,1,10.874,10.881,37.973,37.973,0,0,1,4.654,13.406,8.615,8.615,0,0,1-.04,3.53c-.6,2.211-2.411,3.523-4.161,4.791a14.862,14.862,0,0,0-2.828,2.423A.785.785,0,0,1,110.935,375.705Zm-.874-21.512a7.079,7.079,0,0,0,.558.554,5.024,5.024,0,0,1,.677.7,33.223,33.223,0,0,1,2.249,4.651,13.525,13.525,0,0,1,.583,9.034q-.415,1.43-.93,2.761l.247-.18c1.6-1.159,3.11-2.253,3.565-3.925a7.3,7.3,0,0,0,0-2.89,36.387,36.387,0,0,0-4.458-12.842,25.634,25.634,0,0,0-10.223-10.264,23.95,23.95,0,0,0-13.766-2.144A25.039,25.039,0,0,0,75.1,345.285c-4.632,3.984-7.858,10.3-9.582,18.759a4.206,4.206,0,0,0-.112,1.742,4.38,4.38,0,0,0,1.27,1.833l2.713,2.816q-.143-.45-.254-.915a9.929,9.929,0,0,1,.219-4.824c.08-.359.16-.727.235-1.114a.789.789,0,0,1,.628-.626c.107-.021,2.621-.5,4.06-.625a2.654,2.654,0,0,0,.771-.134c.478-.39,1.567-3.549,2.217-5.438a27.572,27.572,0,0,1,1.885-4.725.79.79,0,0,1,1.447.5l-.543,7.225c-.046.612.18.779.265.843.637.471,2.337.235,3.614-.263.057-.023.1-.039.123-.053,0-.042.005-.1.006-.126l.112-2.839v-.006a.8.8,0,0,1,.821-.758.79.79,0,0,1,.758.82h0c-.06,1.524.287,3.325,1.066,3.822a4.285,4.285,0,0,0,2.143.137c.308-.027.6-.05.861-.056q2.04-.043,4.08-.128a1.485,1.485,0,0,0,.319-.036c.009-.032.052-.255.067-.339l.64-3.389a.79.79,0,0,1,1.374-.368,4.705,4.705,0,0,1,.882,1.964c.056.208.112.417.179.618.279.83.766,1.1,1.9,1.066l3.1-.088a2.149,2.149,0,0,0,.25-.017c-.022-.028-.017-.174-.09-.485l-1.843-7.78a.789.789,0,0,1,1.368-.695,24.021,24.021,0,0,1,4.754,8.793c.265.906,1.266.973,3.277.775l.1-.01q-.186-.722-.376-1.444c-.433-1.653-.881-3.364-1.256-5.064h0a.79.79,0,0,1,1.508-.453Z" transform="translate(-63.775 -337.864)"/></g><path class="c" d="M101.131,408.4a.79.79,0,0,1-.381-1.481,8.718,8.718,0,0,1,2.606-.774c1.9-.357,2.744-.631,2.917-1.768.11-.725.188-1.436.268-2.142a29.762,29.762,0,0,1,.67-4.161.79.79,0,0,1,.71-.592.8.8,0,0,1,.785.487,17.13,17.13,0,0,1,.876,4.235c.078.625.153,1.226.246,1.778a26.8,26.8,0,0,0,7.843-3.384c-1-3.141-1.1-7.147-1.167-9.854a.789.789,0,0,1,1.491-.381c.931,1.8,1.98,3.868,2.891,5.98.362-.215.724-.429,1.088-.642.857-.5,1.718-1.009,2.568-1.545,1.5-.944,1.5-.944,1.306-2.391s-3.316-9.552-5.826-16.066c-2.161-5.61-4.029-10.456-4.285-11.631a.79.79,0,1,1,1.543-.337c.231,1.058,2.257,6.315,4.216,11.4,3.338,8.664,5.717,14.914,5.917,16.428.3,2.285,0,2.656-2.029,3.935-.864.543-1.739,1.059-2.612,1.571-.619.363-1.238.728-1.85,1.1a.79.79,0,0,1-1.142-.375c-.477-1.163-1.01-2.327-1.554-3.45a23.3,23.3,0,0,0,1.138,6.331.791.791,0,0,1-.33.952c-3.941,2.388-7.219,3.748-9.744,4.042a.8.8,0,0,1-.86-.608c-.16-.69-.267-1.472-.365-2.247-.067.6-.14,1.2-.232,1.807-.359,2.361-2.481,2.761-4.184,3.081a7.637,7.637,0,0,0-2.141.606A.772.772,0,0,1,101.131,408.4Z" transform="translate(-35.141 -336.977)"/><path class="c" d="M81.677,408.189a.745.745,0,0,1-.258-.043c-2.259-.779-8.732-3.213-8.8-3.238a.782.782,0,0,1-.4-.328c-.7-1.158-.788-3.094-.852-4.99l-.121.26a25.77,25.77,0,0,1-1.328,2.576.788.788,0,0,1-1.054.277c-.806-.444-6.7-4.226-7.418-5.449s-.3-2.932.225-4.66a4.159,4.159,0,0,1-.47.39.789.789,0,0,1-.978-.049,17.026,17.026,0,0,0-2.163-1.475c-1.636-1.005-3.487-2.146-4.23-3.76-.618-1.338,1.059-4.723,5.327-12.709a93.218,93.218,0,0,0,4.793-9.7.789.789,0,1,1,1.492.518,91.417,91.417,0,0,1-4.891,9.927c-2.181,4.078-5.474,10.243-5.27,11.351.527,1.132,2.163,2.14,3.606,3.028.656.4,1.286.792,1.831,1.2a7.481,7.481,0,0,0,.8-1.136,7.03,7.03,0,0,1,1.3-1.685.789.789,0,0,1,1.313.6,12.542,12.542,0,0,1-.74,3.3c-.458,1.469-1.027,3.295-.578,4.065.411.623,4.246,3.29,6.151,4.468.3-.552.571-1.138.856-1.746a23.009,23.009,0,0,1,1.484-2.82.789.789,0,0,1,1.437.286,19.991,19.991,0,0,1,.2,2.732,13.9,13.9,0,0,0,.512,4.16c1.274.478,6.507,2.438,8.476,3.118a.789.789,0,0,1-.258,1.535Z" transform="translate(-36.78 -336.919)"/></g></g></svg>