<svg xmlns="http://www.w3.org/2000/svg" width="155.56" height="155.56" viewBox="0 0 155.56 155.56"><defs><style>.a{fill:#fff;stroke:#707070;}.b{fill:#1594c4;}.c{fill:#042189;}.d{stroke:none;}.e{fill:none;}</style></defs><g transform="translate(-852 -352)"><g class="a" transform="translate(852 352)"><circle class="d" cx="77.78" cy="77.78" r="77.78"/><circle class="e" cx="77.78" cy="77.78" r="77.28"/></g><g transform="translate(875 368.736)"><path class="b" d="M448.963,417.32c2.906-2.945,3-6.782,2.384-10.6a17.844,17.844,0,0,0-5.243-9.641c-3.419-3.426-5.337-5.5-3.1-10.17,1.563-3.253,4.359-6.443,3.987-10.264s-4.035-6.294-6.325-9.089c-1.421-1.745-2.875-3.309-2.566-5.725.3-2.368,2.131-3.869,2.921-6.064,1.312-3.664.016-7.991-2.218-10.976-2.44-3.262-5.812-5.528-9.989-5.465a11.861,11.861,0,0,0-6.466,2.109c-.063.047-.111.094-.167.142l.126.126a13.3,13.3,0,0,1-1.666,3.893,25.225,25.225,0,0,1,5.361,4.651,31.934,31.934,0,0,1,7.51,20.814h.007c2.724,0,4.927,3.015,4.927,6.743s-2.2,6.744-4.927,6.744a3.809,3.809,0,0,1-2.1-.648c-1.7,5.093-6.859,14.1-11.426,17.571-.039,2.653-.536,6.591-.094,9.173a34.2,34.2,0,0,0,1.3,5.124,8.954,8.954,0,0,0,6.4,5.946l6.869,1.667.719.174a35.97,35.97,0,0,1,11.426,4.95,1.663,1.663,0,0,0,.15-.734c-.071-1.713-2.835-1.019-3.546-2.819C441.675,421.063,447.029,419.294,448.963,417.32Z" transform="translate(-353.593 -337.29)"/><path class="c" d="M446.077,428.592a.789.789,0,0,1-.788-.757c-.01-.261-.142-.375-1.046-.679a3.5,3.5,0,0,1-2.45-1.88c-1.372-3.44,1.687-5.489,3.922-6.987A13.711,13.711,0,0,0,447.7,416.8c2.865-2.913,2.664-6.829,2.169-9.916a17.031,17.031,0,0,0-5.026-9.216c-3.231-3.229-5.782-5.779-3.247-11.066.428-.891.947-1.783,1.449-2.645,1.333-2.285,2.711-4.648,2.463-7.2-.244-2.52-2.178-4.488-4.047-6.394-.719-.732-1.463-1.491-2.1-2.27l-.281-.341c-1.372-1.666-2.79-3.387-2.462-5.981a9.269,9.269,0,0,1,1.7-3.9,11.616,11.616,0,0,0,1.264-2.333c1.325-3.7-.306-7.829-2.107-10.234-1.787-2.386-4.877-5.223-9.342-5.151-2.383.035-6.858,1.295-6.913,3.579a.772.772,0,0,1-.809.77.79.79,0,0,1-.77-.808c.086-3.532,5.558-5.077,8.469-5.12,4.033-.082,7.753,1.94,10.629,5.783,2.679,3.582,3.593,8.179,2.328,11.711a12.916,12.916,0,0,1-1.42,2.656,7.932,7.932,0,0,0-1.462,3.244c-.242,1.918.85,3.244,2.115,4.779l.285.347c.591.723,1.277,1.422,2,2.161,2.061,2.1,4.194,4.273,4.491,7.348s-1.211,5.649-2.669,8.15c-.509.874-.991,1.7-1.391,2.533-1.967,4.1-.521,5.806,2.94,9.267a18.581,18.581,0,0,1,5.469,10.081c.555,3.454.761,7.857-2.6,11.274a14.589,14.589,0,0,1-2.233,1.7c-2.556,1.713-4.169,2.995-3.333,5.091.2.5.695.7,1.486.969.87.292,2.06.694,2.119,2.109a.789.789,0,0,1-.756.822Z" transform="translate(-353.596 -337.317)"/><path class="b" d="M435.046,421.516l.119-.49-5.551-1.342-.071.3c0,21.36-20.008,30.425-20.008,30.425.568-.372-16.061-6.767-17.909-30.488l-.032-.166-4.9,1.019.157.742c1.169,9.871-4.09,25.008-6.632,30.038h61.456C439.137,446.524,433.877,431.387,435.046,421.516Z" transform="translate(-354.981 -334.467)"/><path class="c" d="M438.353,377.746c-.065,2.95-2.225,7.537-5.857,5.424a.79.79,0,0,0-1.144.465c-2.722,8-8.056,16.755-16.087,20.333a11.468,11.468,0,0,1-9.422.2,26.3,26.3,0,0,1-8.946-6.882,43.987,43.987,0,0,1-8.216-13.545.792.792,0,0,0-1.143-.465c-5.767,3.009-8.3-10.214-1.9-11.489a.784.784,0,0,0,.57-.749c.057-10.314,2.979-21.956,13.348-26.4a24.191,24.191,0,0,1,13.767-1.505,23.276,23.276,0,0,1,13.459,8.37,31.713,31.713,0,0,1,6.629,19.5.79.79,0,0,0,.778.777c2.93,0,4.105,3.591,4.157,5.965a.778.778,0,0,0,1.556,0c-.071-3.26-1.871-7.521-5.713-7.521l.777.778c-.209-12.224-6.756-25.1-19.11-28.841-9.439-2.858-20.6.48-26.155,8.766-3.932,5.865-5.013,13.194-5.05,20.115l.571-.75c-8.45,1.682-4.976,18.543,3.1,14.332l-1.144-.465c3.179,8.258,8.993,17.068,17.2,21.045a12.881,12.881,0,0,0,10.024.76,24.356,24.356,0,0,0,10.109-7.226,43.067,43.067,0,0,0,8.336-14.69l-1.143.465a4.736,4.736,0,0,0,5.77-.6,8.5,8.5,0,0,0,2.428-6.167A.778.778,0,0,0,438.353,377.746Z" transform="translate(-354.977 -337.226)"/><g transform="translate(63.641 8.863)"><path class="b" d="M422.148,346.778a4.778,4.778,0,0,0-3.87,3.8,7.75,7.75,0,0,0,1.731,6.777c.743.878,1.56,1.856,2.022,2.448a21.063,21.063,0,0,1,3.517,6.124,14.517,14.517,0,0,1-.625,10.654c2.714-.931,6.354-2.626,8.038-5.114C434.464,369.244,430.581,344.966,422.148,346.778Z" transform="translate(-417.291 -345.895)"/><path class="c" d="M424.949,377.392a.789.789,0,0,1-.724-1.107,13.661,13.661,0,0,0,.6-10.092,19.9,19.9,0,0,0-3.39-5.883c-.456-.587-1.265-1.555-2-2.423a8.54,8.54,0,0,1-1.9-7.474,5.564,5.564,0,0,1,4.471-4.382c1.676-.358,4.182-.023,6.639,3.62,4.341,6.432,6.34,20.292,4.993,22.28-1.942,2.865-6.119,4.623-8.436,5.417A.807.807,0,0,1,424.949,377.392Zm-1.9-29.892a3.325,3.325,0,0,0-.709.077h0a3.976,3.976,0,0,0-3.268,3.21,6.962,6.962,0,0,0,1.566,6.08c.75.886,1.574,1.875,2.042,2.473a21.452,21.452,0,0,1,3.646,6.365,15.131,15.131,0,0,1-.018,9.541c2.1-.866,4.713-2.263,6.026-4.2.858-1.476-.874-14.848-5.256-20.886C425.793,348.393,424.441,347.5,423.048,347.5Zm-.875-.7h0Z" transform="translate(-417.318 -345.922)"/></g><path class="c" d="M407.663,373.273c0,.792-.048,1.582-.081,2.373-.025.563.016,1.139-.033,1.7-.081.937-1.221,1.44-1.878,1.99a2.094,2.094,0,0,0-.635,2.945,7.051,7.051,0,0,0,2.72,2.264c.888.458,1.677-.884.785-1.344a5.141,5.141,0,0,1-2.266-1.875c-.176-.347.054-.5.33-.747.4-.365.865-.656,1.288-1a3.036,3.036,0,0,0,1.218-2.4c.04-1.3.1-2.606.107-3.908a.778.778,0,0,0-1.556,0Z" transform="translate(-354.122 -336.124)"/><path class="c" d="M397.643,368.591c-.041,2.045.189,4.083.195,6.127a1.2,1.2,0,1,0,2.406,0c0-2.044-.236-4.082-.195-6.127a1.213,1.213,0,0,0-1.2-1.2,1.226,1.226,0,0,0-1.2,1.2Z" transform="translate(-354.369 -336.304)"/><path class="c" d="M416.711,368.591c-.04,2.045.19,4.083.195,6.127a1.2,1.2,0,0,0,2.407,0c-.005-2.044-.236-4.082-.195-6.127a1.214,1.214,0,0,0-1.2-1.2,1.227,1.227,0,0,0-1.2,1.2Z" transform="translate(-353.699 -336.304)"/><g transform="translate(64.767 64.309)"><path class="c" d="M464.129,448.989c-3.948-9.166-9.555-17.956-18.084-23.473a38.142,38.142,0,0,0-11.772-4.933,65.929,65.929,0,0,1-8.171-2.055c-3.064-1.184-4.487-3.811-5.333-6.806a20.481,20.481,0,0,1-.921-5.6c0-1.966.276-3.92.3-5.886a.778.778,0,0,0-1.556,0c-.041,3.538-.53,6.831.275,10.331a15.06,15.06,0,0,0,2.932,6.8c2.422,2.754,5.992,3.241,9.358,4.058a49.735,49.735,0,0,1,10.787,3.535,37.279,37.279,0,0,1,11.671,9.348,61.153,61.153,0,0,1,9.17,15.464c.394.917,1.736.125,1.344-.786Z" transform="translate(-418.407 -399.486)"/></g><g transform="translate(0 64.326)"><path class="c" d="M357.252,449.774c4.116-9.554,10.042-18.749,19.3-23.991a38.478,38.478,0,0,1,11.275-4.028c3.062-.638,6.755-.877,9.2-3.025,2.331-2.05,3.021-5.447,3.9-8.291a30.515,30.515,0,0,0,1.152-10.187c-.039-1-1.6-1-1.556,0a29.124,29.124,0,0,1-.94,9.253c-.415,1.437-.906,2.855-1.388,4.27a8.274,8.274,0,0,1-2.129,3.737,8.758,8.758,0,0,1-4.433,1.865l-4.856,1.011a38.214,38.214,0,0,0-22.015,13.5,63.492,63.492,0,0,0-8.849,15.1c-.391.91.948,1.7,1.344.786Z" transform="translate(-355.838 -399.502)"/></g><path class="c" d="M407.264,390.063c3.04.394,6.534.114,8.718-2.3.671-.74-.426-1.845-1.1-1.1-1.911,2.113-4.985,2.186-7.618,1.845a.781.781,0,0,0-.777.777.8.8,0,0,0,.777.778Z" transform="translate(-354.058 -335.635)"/><path class="b" d="M423.218,378.9c-1.476-.363-6.474-.759-6.8,1.264-.414,2.56,7.04,2.239,8.512,1.185C427.261,379.679,423.218,378.9,423.218,378.9Z" transform="translate(-353.71 -335.91)"/><path class="b" d="M398.49,378.9c-1.476-.363-6.474-.759-6.8,1.264-.415,2.56,7.039,2.239,8.512,1.185C402.534,379.679,398.49,378.9,398.49,378.9Z" transform="translate(-354.579 -335.91)"/><path class="c" d="M390.483,419.492c.962,11.73,6.053,22.8,15.943,29.535.527.358,1.065.7,1.6,1.039.161.1.323.228.493.316s.076,0,.024.011c.214-.028-.912-.121.073-.968-.718.617.2,1.561.943,1.221a34.226,34.226,0,0,0,7.033-4.544,36.218,36.218,0,0,0,10.866-14.02,32.6,32.6,0,0,0,2.5-12.529.779.779,0,0,0-1.557,0c-.066,12.029-7.124,22.4-17.254,28.464a24.05,24.05,0,0,1-2.371,1.286l.942,1.222c.9-.776-.517-1.558-1.044-1.891a37.91,37.91,0,0,1-3.6-2.536,34.08,34.08,0,0,1-9.734-12.851,43.03,43.03,0,0,1-3.3-13.756c-.082-.991-1.639-1-1.557,0Z" transform="translate(-354.62 -334.5)"/><path class="c" d="M432.442,421.028c-.629,5.686.509,11.558,1.951,17.04a69.555,69.555,0,0,0,4.784,13.4c.447.9,1.791.109,1.344-.786a67.615,67.615,0,0,1-4.628-13.024c-1.411-5.364-2.511-11.062-1.894-16.626.11-.994-1.447-.985-1.557,0Z" transform="translate(-353.152 -334.445)"/><path class="c" d="M386.1,421.028c.616,5.564-.484,11.262-1.9,16.626a67.681,67.681,0,0,1-4.627,13.024c-.447.893.894,1.682,1.344.786a69.554,69.554,0,0,0,4.783-13.4c1.442-5.482,2.581-11.354,1.951-17.04-.109-.984-1.667-1-1.556,0Z" transform="translate(-355.007 -334.445)"/><g transform="translate(26.392)"><path class="b" d="M409.515,338.122c-6.671,0-13.868,2.581-18.518,7.626a30.9,30.9,0,0,0-7.783,16.954,32.983,32.983,0,0,0,.688,11.187c.9,4.265,2.032,8.744.86,13.081-.706,2.616-2.15,5.023-2.552,7.7a13.632,13.632,0,0,0,1.376,7.712c1.677,3.577,5.03,6.445,6.074,10.29a8.594,8.594,0,0,1-2.841,8.74c2.183-2.362,6.332-2.339,8.071-5.045,2.326-3.622-1.2-7.884-2.572-11.139-.954-2.271-1.5-4.877-.636-7.184A45.414,45.414,0,0,0,394.4,386.6c.376-3.8-.32-7.418-.311-11.185a14.021,14.021,0,0,1,2.058-7.946c2.526-3.678,7.259-4.884,11.506-6.252,8.651-2.788,13.729-5.541,16.709-7.849a6.906,6.906,0,0,0-.17-11.057C421.287,340.152,416.654,338.12,409.515,338.122Z" transform="translate(-381.307 -337.332)"/><path class="c" d="M386.846,422.232a.789.789,0,0,1-.581-1.325,6.293,6.293,0,0,1,.748-.685,7.838,7.838,0,0,0,1.912-7.312,18.387,18.387,0,0,0-3.242-5.77,27.543,27.543,0,0,1-2.786-4.391,14.382,14.382,0,0,1-1.441-8.166,21.033,21.033,0,0,1,1.463-4.685,28.053,28.053,0,0,0,1.108-3.106c1.036-3.835.169-7.869-.67-11.769l-.2-.941a33.3,33.3,0,0,1-.7-11.451,31.717,31.717,0,0,1,7.986-17.39c4.547-4.932,11.686-7.878,19.1-7.88h.01c6.163,0,11.256,1.462,15.141,4.345a7.745,7.745,0,0,1,3.173,6.176,7.621,7.621,0,0,1-2.991,6.14c-3.688,2.857-9.392,5.541-16.95,7.977l-1.173.373c-3.826,1.208-7.781,2.456-9.924,5.575a13.183,13.183,0,0,0-1.92,7.5c0,1.467.1,2.948.21,4.382a39.783,39.783,0,0,1,.1,6.88,46.17,46.17,0,0,1-2.767,11.644c-.673,1.793-.462,4.014.624,6.6.3.707.709,1.477,1.145,2.294,1.521,2.848,3.412,6.39,1.363,9.578-1.07,1.667-2.857,2.4-4.584,3.1a12.908,12.908,0,0,0-2.936,1.483,8.427,8.427,0,0,1-.721.651A.788.788,0,0,1,386.846,422.232Zm22.7-83.294c-6.874,0-13.748,2.827-17.938,7.371a30.124,30.124,0,0,0-7.579,16.519,31.791,31.791,0,0,0,.676,10.925l.2.936c.878,4.086,1.787,8.31.651,12.515a29.917,29.917,0,0,1-1.167,3.281,19.555,19.555,0,0,0-1.367,4.333,12.839,12.839,0,0,0,1.309,7.26,25.989,25.989,0,0,0,2.633,4.134,19.8,19.8,0,0,1,3.488,6.283,9.321,9.321,0,0,1-.529,6.161l.479-.2c1.569-.641,3.053-1.245,3.853-2.492,1.547-2.408.034-5.241-1.428-7.981-.453-.849-.881-1.65-1.207-2.424-1.248-2.972-1.467-5.585-.647-7.767a44.637,44.637,0,0,0,2.674-11.247,37.924,37.924,0,0,0-.1-6.607c-.107-1.464-.217-2.974-.214-4.5a14.705,14.705,0,0,1,2.2-8.391c2.45-3.567,6.67-4.9,10.751-6.187l1.162-.37c7.385-2.379,12.926-4.978,16.469-7.722a6.051,6.051,0,0,0,2.378-4.875,6.178,6.178,0,0,0-2.535-4.924c-3.605-2.677-8.384-4.035-14.2-4.035Z" transform="translate(-381.333 -337.359)"/></g></g></g></svg>