<svg xmlns="http://www.w3.org/2000/svg" width="118" height="33.367" viewBox="0 0 118 33.367"><defs><style>.a{fill:#fff;}</style></defs><g transform="translate(-105.332 -628.764)"><g transform="translate(133.567 629.919)"><path class="a" d="M255.986,677.878h-2.9c.389,1.947,1.982,2.867,4.779,2.867,3.115,0,5.062-.5,6.159-1.239h.248v1.558c0,2.478-2.018,4.708-7.575,4.708-6.726,0-10.266-4.531-10.266-9.912,0-5.912,4-10.726,10.018-10.726,5.1,0,9.062,2.867,9.062,7.823C265.509,676.852,262.57,677.878,255.986,677.878Zm.46-7.717c-2.372,0-3.363,1.522-3.54,3.4h2.62c3.186,0,3.752-.5,3.752-1.345C259.279,671.223,258.394,670.162,256.447,670.162Z" transform="translate(-246.429 -659.011)"/><path class="a" d="M360.449,661.012c-3.575,0-6.655-2.124-6.655-6.726V634.534h2.372c2.938,0,4.354,1.345,4.354,4.637v14.124c0,1.734.956,2.265,2.832,2.265h1.487V657.9C364.838,660.268,362.573,661.012,360.449,661.012Z" transform="translate(-332.309 -634.534)"/><path class="a" d="M425.827,685.914a5.38,5.38,0,0,1-4.991-2.655v8.106h-2.443c-2.69,0-4.107-1.416-4.107-4.708v-10.3c0-6.973,3.859-11.044,10.761-11.044,5.7,0,9.982,3.858,9.982,9.876C435.031,681.843,431.137,685.914,425.827,685.914Zm-1.557-15.469c-1.841,0-3.327,1.77-3.327,4.637,0,4.141,1.77,5.593,4.071,5.593,2.124,0,3.292-1.876,3.292-4.779C428.3,671.719,427.031,670.445,424.27,670.445Z" transform="translate(-380.696 -659.153)"/><path class="a" d="M537.226,677.878h-2.9c.389,1.947,1.983,2.867,4.779,2.867,3.115,0,5.062-.5,6.159-1.239h.248v1.558c0,2.478-2.018,4.708-7.575,4.708-6.725,0-10.265-4.531-10.265-9.912,0-5.912,4-10.726,10.018-10.726,5.1,0,9.062,2.867,9.062,7.823C546.748,676.852,543.81,677.878,537.226,677.878Zm.46-7.717c-2.372,0-3.363,1.522-3.54,3.4h2.62c3.186,0,3.752-.5,3.752-1.345C540.517,671.223,539.633,670.162,537.686,670.162Z" transform="translate(-471.389 -659.011)"/><path class="a" d="M646.822,670.622a6.077,6.077,0,0,0-2.372-.389c-1.628,0-2.9.814-2.9,3.186v11.646h-1.84c-2.9,0-4.673-1.345-4.673-4.6V672a6.734,6.734,0,0,1,7.08-7.044c3.363,0,4.92,1.381,4.92,3.186v2.478Z" transform="translate(-557.269 -658.87)"/></g><g transform="translate(105.332 628.764)"><path class="a" d="M112.988,632.64,113,656.475h-3.374a4.193,4.193,0,0,1-4.3-4.3V628.764h3.936a3.584,3.584,0,0,1,3.695,3.574" transform="translate(-105.332 -628.764)"/><path class="a" d="M198.717,628.764h3.735a3.775,3.775,0,0,1,3.9,3.574v24.137h-3.293a4.225,4.225,0,0,1-4.337-4.3Z" transform="translate(-180.029 -628.764)"/><g transform="translate(3.73 10.053)"><g transform="translate(10.939 0.586)"><path class="a" d="M182.2,686.242a4.394,4.394,0,0,1-2.9-1.427,2,2,0,0,1-.662-1.188,1.065,1.065,0,0,1,.766-1.14.253.253,0,0,0,.052-.02,1.592,1.592,0,0,1,.606-.213l3.934-.327,3.119,4.485-4.2.017Z" transform="translate(-178.635 -681.926)"/></g><path class="a" d="M155.317,680.413a1.51,1.51,0,0,0-.577-.307c-.565-.2-1.518.438-1.9.719a.936.936,0,0,0-.268.315c-.231.434-.762,1.482-.614,1.7.188.271,1.014.418,1.931-1.11l.071-.11a1.513,1.513,0,0,0,.452-.014c.144-.047.2-.339.49-.719A2.44,2.44,0,0,1,155.317,680.413Z" transform="translate(-146.337 -679.854)"/><g transform="translate(4.913 4.791)"><path class="a" d="M156.326,703.823h0l0,.008Z" transform="translate(-154.762 -703.646)"/><path class="a" d="M165.125,705.089l-.156-.058a.185.185,0,0,1-.186.147.2.2,0,0,1-.17-.227,3.765,3.765,0,0,0-.352-1.482c-.141-.227-.274-.349-.395-.361a.4.4,0,0,0-.309.174,2.344,2.344,0,0,0,.031,1.578c.079.263.308.882.721.929a.691.691,0,0,0,.585-.158.861.861,0,0,0,.222-.494A.235.235,0,0,1,165.125,705.089Z" transform="translate(-160.456 -703.073)"/><path class="a" d="M152.553,704.415a2.442,2.442,0,0,0,.4,1.615.428.428,0,0,0,.349.207.533.533,0,0,0,.317-.188,3.066,3.066,0,0,1-.355-2.183c-.091-.1-.268-.234-.445-.1A.938.938,0,0,0,152.553,704.415Z" transform="translate(-151.737 -703.557)"/><path class="a" d="M148.774,707.617a.427.427,0,0,0,.316.162.224.224,0,0,0,.106-.048,3.163,3.163,0,0,1-.222-1.487c0-.028.006-.056.01-.084a.248.248,0,0,0-.131-.1c-.015,0-.062-.011-.14.061a1.38,1.38,0,0,0,.062,1.495Z" transform="translate(-148.522 -705.436)"/><path class="a" d="M158.183,705.5c.183.192.346.275.485.247a.4.4,0,0,0,.221-.152,2.633,2.633,0,0,1-.331-.73,3.513,3.513,0,0,1-.113-1.656.451.451,0,0,0-.293-.26.367.367,0,0,0-.4.182.646.646,0,0,0-.073.138l0,.01h0A2.464,2.464,0,0,0,158.183,705.5Z" transform="translate(-155.771 -702.94)"/></g><path class="a" d="M133.583,685.741c-.058-.051-.117-.106-.175-.167a4.216,4.216,0,0,0-.422-1.638c-.209-.337-.425-.512-.66-.536a.686.686,0,0,0-.566.261.8.8,0,0,0-.417-.276.709.709,0,0,0-.761.324l0,.006a.605.605,0,0,0-.819-.067.993.993,0,0,0-.3.427.458.458,0,0,0-.61.068,1.5,1.5,0,0,0-.329,1.006c0,.056,0,.11,0,.165l-1.382.1-3.168-4.554,5.645.058c-.035.078-.07.156-.1.234-.24.576-.286.885-.159,1.069a.7.7,0,0,0,.584.269h.039c.341-.014,1.028-.228,1.793-1.5a.232.232,0,0,0,.021-.047l.382,0a.329.329,0,0,0,.288-.18c.981-1.785,2.081-1.934,2.641-1.652a.838.838,0,0,1,.5.767.1.1,0,0,1-.069.1,1.274,1.274,0,0,0-.907,1.355c.035,1.262,2.472,2.951,3.76,2.82a.158.158,0,0,1,.16.181,1.115,1.115,0,0,1-.872,1.047.348.348,0,0,0-.214.179.874.874,0,0,1-1.028.523.3.3,0,0,0-.3.086.661.661,0,0,1-.86.093.291.291,0,0,0-.2-.031,1.687,1.687,0,0,1-1.168-.26Z" transform="translate(-123.971 -679)"/></g></g></g></svg>